<svg width="438" height="803" viewBox="0 0 438 803" fill="none" xmlns="http://www.w3.org/2000/svg">
<g style="mix-blend-mode:luminosity" filter="url(#filter0_f_5649_10073)">
<path d="M1269.24 461.128C1263.05 472.318 1253.81 486.643 1239.85 502.825C1207.17 541.432 1141.92 599.379 1017.57 656.536C937.418 693.343 847.53 701.079 750.182 679.451C668.394 661.12 599.544 626.546 556.279 600.479C532.178 585.958 517.966 575.461 517.768 575.342L515.99 574.271L514.327 572.993L111.836 328.283C161.558 252.693 266.221 180.639 384.864 141.876C470.006 114.151 634.827 80.0005 783.019 165.417L1269.04 461.009L1269.24 461.128Z" fill="url(#paint0_linear_5649_10073)" fill-opacity="0.27"/>
</g>
<defs>
<filter id="filter0_f_5649_10073" x="0.935936" y="0.226585" width="1379.21" height="802.087" filterUnits="userSpaceOnUse" color-interpolation-filters="sRGB">
<feFlood flood-opacity="0" result="BackgroundImageFix"/>
<feBlend mode="normal" in="SourceGraphic" in2="BackgroundImageFix" result="shape"/>
<feGaussianBlur stdDeviation="55.45" result="effect1_foregroundBlur_5649_10073"/>
</filter>
<linearGradient id="paint0_linear_5649_10073" x1="227.478" y1="118.324" x2="1172.08" y2="637.997" gradientUnits="userSpaceOnUse">
<stop stop-color="#21BBEC"/>
<stop offset="1" stop-color="#168BD8"/>
</linearGradient>
</defs>
</svg>
