<svg width="1728" height="3334" viewBox="0 0 1728 3334" fill="none" xmlns="http://www.w3.org/2000/svg">
<g filter="url(#filter0_f_5809_6708)">
<circle cx="1240.44" cy="453.436" r="278.436" fill="#21BBEC" fill-opacity="0.32"/>
</g>
<g filter="url(#filter1_f_5809_6708)">
<circle cx="191" cy="182" r="148" fill="#21BBEC" fill-opacity="0.53"/>
</g>
<g style="mix-blend-mode:color-burn" filter="url(#filter2_f_5809_6708)">
<path d="M806 195.82C806 199.47 805.678 204.336 804.454 210.351C801.684 224.612 793.568 248.403 770.895 280.709C756.274 301.525 735.339 316.665 708.608 325.721C686.128 333.291 664.614 334.981 650.508 334.981C642.65 334.981 637.754 334.508 637.69 334.508H637.11L636.531 334.44L505 333.899C506.932 308.081 522.778 275.032 546.546 248.065C563.615 228.735 599.3 196.091 647.094 195.145L805.936 195.82H806Z" fill="url(#paint0_linear_5809_6708)"/>
</g>
<g style="mix-blend-mode:color-burn" filter="url(#filter3_f_5809_6708)">
<path d="M1745 777.08C1745 780.729 1744.68 785.596 1743.45 791.611C1740.68 805.872 1732.57 829.662 1709.9 861.968C1695.27 882.785 1674.34 897.924 1647.61 906.981C1625.13 914.55 1603.61 916.24 1589.51 916.24C1581.65 916.24 1576.75 915.767 1576.69 915.767H1576.11L1575.53 915.699L1444 915.159C1445.93 889.341 1461.78 856.291 1485.55 829.324C1502.62 809.994 1538.3 777.35 1586.09 776.404L1744.94 777.08H1745Z" fill="url(#paint1_linear_5809_6708)"/>
</g>
<g style="mix-blend-mode:color-burn" filter="url(#filter4_f_5809_6708)">
<path d="M82.324 632.901C84.0727 629.741 86.6831 625.694 90.6251 621.124C99.8565 610.219 118.284 593.85 153.399 577.703C176.035 567.304 201.418 565.116 228.908 571.22C252.003 576.394 271.444 586.157 283.66 593.517C290.466 597.617 294.479 600.581 294.534 600.615L295.036 600.917L295.506 601.278L409.156 670.376C395.112 691.727 365.554 712.081 332.05 723.033C308.006 730.867 261.461 740.518 219.617 716.4L82.3798 632.935L82.324 632.901Z" fill="url(#paint2_linear_5809_6708)"/>
</g>
<path d="M921.861 316.314C979.851 309.78 1038.71 300.553 1078.67 292.004C1382.39 227.021 828.463 148.71 707.427 245.185C666.195 278.05 782.429 305.523 921.861 316.314ZM921.861 316.314C825.062 327.221 730.682 333 730.682 333M921.861 316.314C1008.33 323.006 1103.71 322.464 1176 315.29" stroke="#78ECF9" stroke-width="2" stroke-linecap="square"/>
<g style="mix-blend-mode:plus-darker" filter="url(#filter5_f_5809_6708)">
<path d="M2336 2797.74C2336 2808.88 2335.02 2823.74 2331.28 2842.1C2322.82 2885.62 2298.04 2958.24 2228.82 3056.84C2184.18 3120.38 2120.26 3166.59 2038.65 3194.23C1970.01 3217.34 1904.33 3222.49 1861.26 3222.49C1837.27 3222.49 1822.32 3221.05 1822.12 3221.05H1820.35L1818.58 3220.84L1417 3219.19C1422.9 3140.39 1471.28 3039.51 1543.85 2957.21C1595.96 2898.21 1704.91 2798.57 1850.84 2795.68L2335.8 2797.74H2336Z" fill="url(#paint3_linear_5809_6708)"/>
</g>
<defs>
<filter id="filter0_f_5809_6708" x="527" y="-260" width="1426.87" height="1426.87" filterUnits="userSpaceOnUse" color-interpolation-filters="sRGB">
<feFlood flood-opacity="0" result="BackgroundImageFix"/>
<feBlend mode="normal" in="SourceGraphic" in2="BackgroundImageFix" result="shape"/>
<feGaussianBlur stdDeviation="217.5" result="effect1_foregroundBlur_5809_6708"/>
</filter>
<filter id="filter1_f_5809_6708" x="-392" y="-401" width="1166" height="1166" filterUnits="userSpaceOnUse" color-interpolation-filters="sRGB">
<feFlood flood-opacity="0" result="BackgroundImageFix"/>
<feBlend mode="normal" in="SourceGraphic" in2="BackgroundImageFix" result="shape"/>
<feGaussianBlur stdDeviation="217.5" result="effect1_foregroundBlur_5809_6708"/>
</filter>
<filter id="filter2_f_5809_6708" x="492.5" y="182.645" width="326" height="164.836" filterUnits="userSpaceOnUse" color-interpolation-filters="sRGB">
<feFlood flood-opacity="0" result="BackgroundImageFix"/>
<feBlend mode="normal" in="SourceGraphic" in2="BackgroundImageFix" result="shape"/>
<feGaussianBlur stdDeviation="6.25" result="effect1_foregroundBlur_5809_6708"/>
</filter>
<filter id="filter3_f_5809_6708" x="1431.5" y="763.904" width="326" height="164.836" filterUnits="userSpaceOnUse" color-interpolation-filters="sRGB">
<feFlood flood-opacity="0" result="BackgroundImageFix"/>
<feBlend mode="normal" in="SourceGraphic" in2="BackgroundImageFix" result="shape"/>
<feGaussianBlur stdDeviation="6.25" result="effect1_foregroundBlur_5809_6708"/>
</filter>
<filter id="filter4_f_5809_6708" x="69.8242" y="555.346" width="351.832" height="188.879" filterUnits="userSpaceOnUse" color-interpolation-filters="sRGB">
<feFlood flood-opacity="0" result="BackgroundImageFix"/>
<feBlend mode="normal" in="SourceGraphic" in2="BackgroundImageFix" result="shape"/>
<feGaussianBlur stdDeviation="6.25" result="effect1_foregroundBlur_5809_6708"/>
</filter>
<filter id="filter5_f_5809_6708" x="1306.1" y="2684.78" width="1140.8" height="648.613" filterUnits="userSpaceOnUse" color-interpolation-filters="sRGB">
<feFlood flood-opacity="0" result="BackgroundImageFix"/>
<feBlend mode="normal" in="SourceGraphic" in2="BackgroundImageFix" result="shape"/>
<feGaussianBlur stdDeviation="55.45" result="effect1_foregroundBlur_5809_6708"/>
</filter>
<linearGradient id="paint0_linear_5809_6708" x1="504.873" y1="265.499" x2="806.195" y2="264.797" gradientUnits="userSpaceOnUse">
<stop stop-color="#21BBEC"/>
<stop offset="1" stop-color="#168BD8"/>
</linearGradient>
<linearGradient id="paint1_linear_5809_6708" x1="1443.87" y1="846.758" x2="1745.19" y2="846.056" gradientUnits="userSpaceOnUse">
<stop stop-color="#21BBEC"/>
<stop offset="1" stop-color="#168BD8"/>
</linearGradient>
<linearGradient id="paint2_linear_5809_6708" x1="376.492" y1="729.679" x2="109.771" y2="582.941" gradientUnits="userSpaceOnUse">
<stop stop-color="#21BBEC"/>
<stop offset="1" stop-color="#168BD8"/>
</linearGradient>
<linearGradient id="paint3_linear_5809_6708" x1="1416.61" y1="3010.42" x2="2336.59" y2="3008.27" gradientUnits="userSpaceOnUse">
<stop stop-color="#21BBEC"/>
<stop offset="1" stop-color="#168BD8"/>
</linearGradient>
</defs>
</svg>
