<svg width="164" height="38" viewBox="0 0 164 38" fill="none" xmlns="http://www.w3.org/2000/svg">
<path d="M32.609 34.772C32.2696 35.0139 31.919 35.1858 31.5716 35.3613C30.0876 36.1136 28.5587 36.7316 26.9787 37.1811C25.9525 37.4731 24.9135 37.6701 23.857 37.7794C22.0224 37.9674 20.2262 37.7024 18.4444 37.2671C16.7267 36.848 15.0746 36.2068 13.4913 35.3506C13.4096 35.3058 13.3296 35.2574 13.2512 35.2073C13.2351 35.1965 13.2287 35.1679 13.2031 35.1195C13.4945 35.141 13.7746 35.141 14.0468 35.1894C14.5799 35.2825 15.1162 35.2682 15.6477 35.2324C16.669 35.1643 17.6824 35.0174 18.6765 34.7183C19.9844 34.3243 21.2123 33.7475 22.2977 32.8197C22.4386 32.6997 22.5426 32.4776 22.7331 32.4794C22.9076 32.483 23.0053 32.6925 23.1382 32.8072C24.1819 33.6956 25.3762 34.2025 26.6377 34.5392C28.0321 34.91 29.4472 34.9977 30.8736 34.9225C31.3491 34.8974 31.8213 34.8061 32.2952 34.7434C32.3896 34.7291 32.4873 34.6735 32.609 34.772Z" fill="black"/>
<path d="M18.9473 3.11177C21.1645 1.78632 23.489 0.851343 25.9399 0.314C27.2654 0.0238345 28.607 -0.0639315 29.9485 0.0453282C32.0809 0.219069 34.1524 0.740292 36.1599 1.57497C36.8643 1.86871 37.5495 2.21261 38.2298 2.56547C38.2987 2.60129 38.3787 2.62458 38.4203 2.75533C38.2058 2.73563 38.0169 2.72309 37.828 2.6998C36.9315 2.59054 36.0366 2.60487 35.1385 2.69443C34.0563 2.8019 32.9982 3.02758 31.9704 3.42163C30.9202 3.82464 29.9293 4.35482 29.0712 5.16442C28.7959 5.42413 28.7718 5.4116 28.4965 5.15188C27.8529 4.54647 27.1213 4.11123 26.3369 3.78882C25.0898 3.27655 23.7995 3.024 22.4724 2.91116C21.3502 2.81623 20.2488 2.93982 19.1426 3.08311C19.0801 3.09386 19.0129 3.10281 18.9473 3.11177Z" fill="black"/>
<path d="M27.8518 6.33257L21.2218 13.748L21.1847 13.7957C21.1448 13.8499 17.1275 19.245 11.9335 18.3336C8.05858 17.6548 6.51432 16.2112 5.98438 15.542L11.9278 8.89146C12.4207 8.34336 12.9364 7.81756 13.4749 7.32681C13.8823 6.95397 14.398 6.47278 14.7228 6.23697C16.4978 4.93362 18.8085 4.1975 21.3186 4.172C24.0652 4.1497 26.6067 4.98779 27.8518 6.33257Z" fill="black"/>
<mask id="mask0_5643_8428" style="mask-type:luminance" maskUnits="userSpaceOnUse" x="18" y="0" width="21" height="6">
<path d="M25.8747 0.306653C23.6894 0.76872 21.0852 1.72472 18.6406 3.14598C19.4982 2.97071 20.39 2.87192 21.3075 2.85918H21.4528C24.4843 2.85918 27.2309 3.82792 28.684 5.40533C30.2111 3.77375 32.9549 2.69984 35.8895 2.5915C36.7642 2.55963 37.6104 2.61062 38.4168 2.74446C36.9409 1.90318 35.4337 1.28177 33.9834 0.8452C33.8866 0.81652 33.7925 0.791027 33.6985 0.762347C33.6957 0.75916 33.6928 0.75916 33.69 0.75916C32.8922 0.536093 32.1144 0.360826 31.385 0.236546C30.4163 0.0740259 29.5074 0.000732422 28.6925 0.000732422C27.8777 0.000732422 26.926 0.102706 25.8747 0.303466" fill="white"/>
</mask>
<g mask="url(#mask0_5643_8428)">
<path d="M38.4187 0.00476074H18.6426V5.40617H38.4187V0.00476074Z" fill="url(#paint0_linear_5643_8428)"/>
</g>
<mask id="mask1_5643_8428" style="mask-type:luminance" maskUnits="userSpaceOnUse" x="29" y="3" width="23" height="16">
<path d="M35.9281 3.90415C33.3239 3.99975 30.8252 4.95257 29.5117 6.33558L36.0734 13.7701C36.0876 13.7828 36.099 13.7988 36.1104 13.8147C36.1218 13.8306 37.1418 15.2232 38.7972 16.4788C40.9768 18.1263 43.1764 18.7795 45.336 18.4194C49.2166 17.7662 50.7694 16.3385 51.2994 15.6693L43.4299 6.75622C41.199 4.33435 38.2131 3.89459 36.3725 3.89459C36.2158 3.89459 36.0677 3.89778 35.9309 3.90415" fill="white"/>
</mask>
<g mask="url(#mask1_5643_8428)">
<path d="M51.2994 3.89905H29.5117V18.784H51.2994V3.89905Z" fill="url(#paint1_linear_5643_8428)"/>
</g>
<path d="M45.3166 22.3138L39.3733 28.9612C38.8804 29.5125 38.3647 30.0351 37.8262 30.529C37.4187 30.9051 36.903 31.3831 36.5811 31.6189C34.8032 32.9222 32.4925 33.6584 29.9824 33.6807C27.2358 33.7062 24.6943 32.8617 23.4492 31.5233L30.0793 24.1079L30.1191 24.0601C30.1562 24.0059 34.1735 18.6173 39.3676 19.5255C43.2424 20.2042 44.7895 21.6446 45.3166 22.3138Z" fill="black"/>
<mask id="mask2_5643_8428" style="mask-type:luminance" maskUnits="userSpaceOnUse" x="0" y="19" width="22" height="15">
<path d="M5.96333 19.4361C2.08275 20.0862 0.532796 21.517 0 22.183L7.86942 31.0993C10.2884 33.7251 13.5963 34.0183 15.3685 33.9514C17.9755 33.8558 20.4713 32.903 21.7848 31.52L15.2231 24.0855C15.2089 24.0695 15.1975 24.0536 15.1861 24.0377C15.1776 24.0249 14.1576 22.6323 12.4993 21.3768C10.7101 20.0225 8.90937 19.3405 7.12579 19.3405C6.73545 19.3405 6.34796 19.3724 5.96048 19.4393" fill="white"/>
</mask>
<g mask="url(#mask2_5643_8428)">
<path d="M21.7876 19.3366H0V34.0144H21.7876V19.3366Z" fill="url(#paint2_linear_5643_8428)"/>
</g>
<mask id="mask3_5643_8428" style="mask-type:luminance" maskUnits="userSpaceOnUse" x="12" y="32" width="21" height="6">
<path d="M15.4081 35.2641C14.5334 35.2928 13.69 35.2418 12.8809 35.108C14.3567 35.9525 15.8639 36.5707 17.3142 37.0104C17.411 37.0359 17.5051 37.0678 17.5991 37.0933H17.6076C18.4054 37.3195 19.1832 37.4948 19.9126 37.6191C20.8813 37.7816 21.7902 37.8517 22.6051 37.8517C23.42 37.8517 24.3716 37.7529 25.4229 37.5522C27.6083 37.0869 30.2124 36.1341 32.657 34.7097C31.7994 34.8913 30.9076 34.9901 29.9902 34.9965C29.9389 34.9996 29.8933 34.9996 29.842 34.9996C26.8105 34.9996 24.0639 34.0277 22.6108 32.4535C21.0808 34.0819 18.3399 35.159 15.4052 35.2673" fill="white"/>
</mask>
<g mask="url(#mask3_5643_8428)">
<path d="M32.657 32.4496H12.8809V37.8478H32.657V32.4496Z" fill="url(#paint3_linear_5643_8428)"/>
</g>
<path d="M62.4766 19.9621C62.4766 16.6914 62.4766 13.4208 62.4766 10.1484C62.4766 9.53043 62.4766 9.52506 63.0177 9.5161C64.2679 9.49461 65.5182 9.44266 66.7701 9.40505C67.9083 9.37102 69.045 9.3334 70.1816 9.37102C71.5231 9.41401 72.8246 9.69342 74.0349 10.3848C75.2484 11.078 76.2041 12.0649 76.758 13.4763C77.2527 14.7373 77.4015 16.0627 77.2767 17.433C77.123 19.1274 76.465 20.5406 75.386 21.7227C75.0194 22.124 74.6064 22.4643 74.1662 22.7616C73.8636 22.9658 73.8588 22.9819 74.0701 23.3133C75.4165 25.443 76.7644 27.5726 78.1123 29.7005C78.2116 29.8563 78.314 30.0086 78.4005 30.1734C78.4757 30.3185 78.4421 30.374 78.2868 30.3937C78.2084 30.4026 78.1283 30.3991 78.0483 30.3991C76.7292 30.3991 75.4085 30.3865 74.0893 30.408C73.7724 30.4134 73.5947 30.2808 73.4282 29.9996C72.3444 28.1762 71.2414 26.369 70.164 24.542C69.9527 24.1838 69.7269 24.0315 69.3363 24.0477C68.5295 24.0835 67.721 24.0566 66.9126 24.0584C66.546 24.0602 66.53 24.0745 66.53 24.4919C66.5284 26.2615 66.53 28.0294 66.5284 29.799C66.5284 30.3973 66.5268 30.3973 66.0081 30.3973C64.9947 30.3973 63.983 30.3973 62.9696 30.3973C62.8784 30.3973 62.7871 30.3937 62.6975 30.3919C62.5598 30.3883 62.4894 30.3041 62.4846 30.1519C62.4782 30.0301 62.4766 29.9011 62.4766 29.7739C62.4766 26.5033 62.4766 23.2327 62.4766 19.9621ZM66.5268 16.7667C66.5268 17.7589 66.5236 18.7512 66.5284 19.7435C66.53 20.0856 66.5556 20.1143 66.8614 20.1161C67.7707 20.1197 68.6816 20.1179 69.5909 20.1179C69.8982 20.1179 70.2024 20.0982 70.5098 20.0659C71.9201 19.9226 73.433 18.7226 73.3289 16.4389C73.2697 15.169 72.7894 14.2089 71.5311 13.7253C71.0541 13.5426 70.5642 13.4387 70.0599 13.4369C69.0129 13.4315 67.9676 13.4351 66.9206 13.4405C66.538 13.4423 66.5284 13.4548 66.5284 13.9044C66.5252 14.8573 66.5268 15.812 66.5268 16.7667Z" fill="black"/>
<path d="M102.244 30.8647C99.3655 30.8773 96.8761 30.2862 94.4636 29.2509C94.4428 29.2419 94.4204 29.233 94.3996 29.2222C94.0922 29.079 94.0826 29.0682 94.1594 28.7153C94.2651 28.2335 94.3771 27.7535 94.4876 27.2735C94.6333 26.6323 94.779 25.991 94.9278 25.3516C95.0287 24.9145 95.0383 24.9074 95.4065 25.0704C96.2102 25.4286 97.0314 25.7313 97.8671 25.9839C98.9461 26.3081 100.039 26.5302 101.154 26.6358C102.033 26.72 102.902 26.7164 103.769 26.5319C104.197 26.4406 104.599 26.2722 104.962 25.991C105.713 25.4107 105.726 24.0279 105.162 23.4261C104.623 22.8511 103.966 22.5986 103.291 22.389C102.646 22.1884 101.983 22.0577 101.323 21.918C100.07 21.6529 98.8292 21.3358 97.6493 20.7734C97.2395 20.5782 96.8521 20.3418 96.4775 20.0731C95.3969 19.2993 94.8398 18.1637 94.6445 16.7774C94.5356 16.0036 94.5452 15.2316 94.6717 14.4596C94.9086 13.0142 95.5778 11.8696 96.6104 10.9776C97.6173 10.1072 98.7764 9.64683 100.019 9.42652C101.194 9.21874 102.374 9.2474 103.557 9.33875C105.326 9.47488 107.048 9.8564 108.727 10.494C109.307 10.7144 109.236 10.6946 109.099 11.2624C108.851 12.2941 108.596 13.3241 108.342 14.3557C108.257 14.6979 108.246 14.7068 107.943 14.6083C106.906 14.2716 105.865 13.9456 104.804 13.7109C103.617 13.4494 102.423 13.2811 101.211 13.3617C100.755 13.3921 100.308 13.4853 99.889 13.7038C99.223 14.053 98.898 14.6387 98.8916 15.4609C98.8884 15.9857 99.0773 16.3959 99.4359 16.7165C99.7417 16.9905 100.087 17.1804 100.462 17.3058C101.411 17.6264 102.385 17.8288 103.353 18.0545C104.581 18.341 105.79 18.6957 106.928 19.2975C107.434 19.5662 107.917 19.8761 108.342 20.288C109.169 21.0905 109.553 22.1454 109.675 23.333C109.765 24.1981 109.723 25.0596 109.552 25.9104C109.267 27.329 108.583 28.4449 107.517 29.2742C106.505 30.0605 105.367 30.4743 104.165 30.6999C103.437 30.8396 102.7 30.8826 102.244 30.8647Z" fill="black"/>
<path d="M126.358 22.8835C126.381 24.2268 126.193 25.4502 125.707 26.5965C124.853 28.6044 123.458 29.9406 121.557 30.5639C119.638 31.1926 117.704 31.1747 115.834 30.3436C113.495 29.3047 112.101 27.3506 111.648 24.5761C111.425 23.2184 111.467 21.8589 111.808 20.5317C112.411 18.1871 113.751 16.5392 115.778 15.6759C117.942 14.7535 120.156 14.7445 122.303 15.7457C124.434 16.7398 125.737 18.5632 126.214 21.1013C126.329 21.7138 126.382 22.3336 126.358 22.8835ZM122.503 22.9569C122.503 22.8297 122.507 22.7026 122.503 22.5754C122.447 20.8219 121.437 19.4498 119.91 19.0594C119.362 18.9197 118.809 18.9053 118.251 19.011C117.16 19.2188 116.342 19.8475 115.81 20.9365C115.411 21.7532 115.354 22.6399 115.439 23.5336C115.578 25.0095 116.225 26.1236 117.461 26.7308C118.139 27.064 118.858 27.1338 119.599 27.0103C120.658 26.8311 121.463 26.2419 122.012 25.2209C122.387 24.5259 122.523 23.7611 122.503 22.9569Z" fill="black"/>
<path d="M87.4 24.6567C86.0569 24.6567 84.7153 24.6567 83.3722 24.6567C83.2921 24.6567 83.2121 24.6531 83.1337 24.6584C82.9079 24.671 82.8887 24.7014 82.9768 24.9271C83.3274 25.8316 83.9341 26.4353 84.7569 26.7577C85.4966 27.0478 86.2634 27.1159 87.0446 27.0389C88.3157 26.9171 89.566 26.6502 90.8163 26.3762C91.1669 26.2991 91.1941 26.326 91.2565 26.7272C91.3894 27.5798 91.5223 28.4306 91.6551 29.2832C91.6631 29.3333 91.6695 29.3835 91.6743 29.4336C91.6984 29.7113 91.6951 29.7238 91.4502 29.8169C90.8579 30.0444 90.2512 30.211 89.6428 30.3812C88.3333 30.7465 87.0062 30.9364 85.655 30.8504C84.131 30.7519 82.6854 30.3543 81.4319 29.319C80.1848 28.2909 79.3748 26.926 78.9938 25.2495C78.64 23.6876 78.6416 22.1168 79.0386 20.5728C79.7142 17.9542 81.2558 16.2544 83.5851 15.5075C85.258 14.9701 86.9469 15.0418 88.5734 15.7708C90.2271 16.5141 91.4246 17.7894 91.9801 19.731C92.1322 20.2648 92.2106 20.8182 92.2202 21.3824C92.2362 22.2762 92.185 23.1628 92.0698 24.0459C92.0553 24.1587 92.0281 24.2698 92.0137 24.3844C91.9897 24.5671 91.8921 24.6477 91.7336 24.6531C91.6311 24.6549 91.5287 24.6584 91.4262 24.6584C90.0847 24.6567 88.7415 24.6567 87.4 24.6567ZM85.6983 21.5025C86.5387 21.5025 87.3792 21.5025 88.2196 21.5025C88.3109 21.5025 88.4005 21.4989 88.4918 21.4989C88.6535 21.4971 88.7111 21.395 88.6999 21.2266C88.6951 21.1639 88.6935 21.0994 88.6823 21.0368C88.5654 20.3776 88.2885 19.8134 87.821 19.3925C86.8013 18.4718 85.6534 18.3966 84.4816 18.9053C83.5483 19.3101 83.036 20.1788 82.7687 21.232C82.7174 21.4344 82.751 21.4792 82.9383 21.4989C83.0168 21.5078 83.0968 21.5025 83.1769 21.5025C84.0173 21.5025 84.8578 21.5025 85.6983 21.5025Z" fill="black"/>
<path d="M150.231 22.8904C150.231 25.0792 150.231 27.2698 150.231 29.4585C150.231 30.098 150.231 30.1087 149.672 30.2108C148.662 30.3953 147.649 30.5386 146.628 30.6371C145.233 30.7715 143.837 30.8503 142.438 30.8503C141.673 30.8503 140.917 30.7733 140.174 30.5547C138.242 29.9887 137.09 28.4627 136.897 26.2417C136.854 25.733 136.84 25.2261 136.84 24.7174C136.84 21.9429 136.84 19.1684 136.84 16.3939C136.84 16.3438 136.84 16.2918 136.84 16.2417C136.841 15.69 136.841 15.6882 137.331 15.6882C138.309 15.6864 139.288 15.6882 140.267 15.6882C140.359 15.6882 140.45 15.69 140.539 15.6954C140.661 15.7008 140.73 15.776 140.74 15.9085C140.749 16.0483 140.751 16.188 140.751 16.3277C140.751 18.8729 140.752 21.4181 140.751 23.9651C140.751 24.463 140.762 24.9574 140.895 25.4392C141.141 26.3384 141.676 26.8793 142.497 27.0674C143.094 27.2053 143.698 27.1587 144.3 27.1265C144.799 27.1014 145.297 27.0423 145.795 26.9975C145.898 26.9886 146 26.9814 146.099 26.9635C146.24 26.9384 146.325 26.8542 146.32 26.6805C146.317 26.5659 146.322 26.4512 146.322 26.3366C146.322 22.9889 146.322 19.6413 146.322 16.2936C146.322 15.69 146.322 15.6882 146.865 15.6882C147.831 15.6882 148.798 15.6864 149.765 15.6882C150.201 15.6882 150.226 15.7133 150.226 16.2077C150.231 18.4358 150.231 20.664 150.231 22.8904Z" fill="black"/>
<path d="M155.147 22.6236C155.147 21.7585 155.149 20.8934 155.146 20.0265C155.144 19.6432 155.114 19.6091 154.776 19.6073C154.172 19.602 153.571 19.6056 152.967 19.6056C152.865 19.6056 152.762 19.602 152.661 19.5912C152.544 19.5787 152.476 19.5035 152.472 19.3673C152.471 19.3029 152.468 19.2402 152.468 19.1757C152.468 18.1583 152.466 17.1392 152.468 16.1218C152.469 15.7134 152.487 15.6937 152.857 15.6919C153.46 15.6883 154.062 15.6919 154.666 15.6901C155.144 15.6901 155.146 15.6883 155.146 15.1349C155.146 13.7611 155.146 12.3855 155.146 11.0116C155.146 10.4671 155.165 10.4456 155.639 10.4439C156.606 10.4421 157.573 10.4439 158.54 10.4439C158.562 10.4439 158.584 10.4439 158.608 10.4439C159.03 10.451 159.058 10.4797 159.058 10.94C159.06 12.3532 159.058 13.7646 159.06 15.1778C159.06 15.6883 159.062 15.6901 159.505 15.6901C160.541 15.6901 161.575 15.6901 162.611 15.6901C162.702 15.6901 162.793 15.6865 162.884 15.6937C163.11 15.7098 163.139 15.7421 163.158 15.9821C163.161 16.0322 163.161 16.0842 163.161 16.1343C163.161 17.1392 163.163 18.1458 163.161 19.1506C163.16 19.5769 163.139 19.6038 162.752 19.6038C161.716 19.6073 160.682 19.6056 159.646 19.6056C159.566 19.6056 159.486 19.6038 159.407 19.6073C159.087 19.6181 159.063 19.6396 159.062 20.0104C159.06 21.5758 159.052 23.1413 159.066 24.7067C159.073 25.3139 159.196 25.8925 159.579 26.3653C159.811 26.6501 160.099 26.8257 160.429 26.8955C160.763 26.9654 161.099 26.9976 161.445 26.9672C162.09 26.9098 162.739 26.8812 163.382 26.7863C163.611 26.7522 163.669 26.8113 163.694 27.0693C163.797 28.0669 163.896 29.0646 163.991 30.064C164.018 30.3453 163.994 30.3847 163.734 30.4491C163.157 30.5924 162.572 30.6927 161.986 30.7733C161.239 30.8772 160.488 30.888 159.737 30.8522C158.452 30.7895 157.309 30.3238 156.417 29.2401C155.773 28.4574 155.437 27.5081 155.272 26.4728C155.131 25.5898 155.143 24.6996 155.147 23.8094C155.151 23.4135 155.149 23.0177 155.147 22.6236Z" fill="black"/>
<path d="M129.189 19.5125C129.189 16.0771 129.189 12.6417 129.189 9.20628C129.189 8.6152 129.196 8.60803 129.719 8.60803C130.675 8.60624 131.631 8.60803 132.585 8.60803C132.643 8.60803 132.699 8.60624 132.756 8.60982C133.044 8.62774 133.088 8.67431 133.1 8.99492C133.105 9.09702 133.102 9.19911 133.102 9.29942C133.102 16.1058 133.102 22.9139 133.104 29.7203C133.104 30.5119 133.075 30.3955 132.484 30.3991C131.551 30.4045 130.619 30.4009 129.686 30.4009C129.191 30.4009 129.189 30.3991 129.189 29.8564C129.189 26.4084 129.189 22.9605 129.189 19.5125Z" fill="black"/>
<defs>
<linearGradient id="paint0_linear_5643_8428" x1="18.6395" y1="2.99201" x2="38.4157" y2="2.99201" gradientUnits="userSpaceOnUse">
<stop stop-color="#21BBEC"/>
<stop offset="1" stop-color="#168BD8"/>
</linearGradient>
<linearGradient id="paint1_linear_5643_8428" x1="29.2305" y1="10.5596" x2="51.0182" y2="10.5596" gradientUnits="userSpaceOnUse">
<stop stop-color="#21BBEC"/>
<stop offset="1" stop-color="#168BD8"/>
</linearGradient>
<linearGradient id="paint2_linear_5643_8428" x1="-0.281185" y1="25.9972" x2="21.5065" y2="25.9972" gradientUnits="userSpaceOnUse">
<stop stop-color="#21BBEC"/>
<stop offset="1" stop-color="#168BD8"/>
</linearGradient>
<linearGradient id="paint3_linear_5643_8428" x1="12.8778" y1="35.4368" x2="32.6539" y2="35.4368" gradientUnits="userSpaceOnUse">
<stop stop-color="#21BBEC"/>
<stop offset="1" stop-color="#168BD8"/>
</linearGradient>
</defs>
</svg>
