<svg width="76" height="75" viewBox="0 0 76 75" fill="none" xmlns="http://www.w3.org/2000/svg">
<g clip-path="url(#clip0_5649_9996)">
<path d="M37.5945 69.7594C55.3522 69.7594 69.7477 55.3639 69.7477 37.6063C69.7477 19.8486 55.3522 5.45312 37.5945 5.45312C19.8369 5.45312 5.44141 19.8486 5.44141 37.6063C5.44141 55.3639 19.8369 69.7594 37.5945 69.7594Z" fill="#0D0D0D"/>
<path opacity="0.59" fill-rule="evenodd" clip-rule="evenodd" d="M51.2422 61.208C62.9016 50.2361 64.8406 37.6658 57.0594 23.497C57.099 23.5251 57.5807 21.8626 58.5047 18.5095C62.6484 23.5283 64.8516 29.7231 65.1141 37.0939C65.112 46.6356 60.488 54.6736 51.2422 61.208Z" fill="url(#paint0_linear_5649_9996)"/>
<path opacity="0.74" fill-rule="evenodd" clip-rule="evenodd" d="M45.7083 18.5765C40.0833 15.4515 33.6177 9.19213 34.4755 7.87494C35.3333 6.55775 46.4802 6.78119 52.1115 9.90619C57.7427 13.0312 62.5349 22.3703 61.6771 23.6859C60.8193 25.0015 51.338 21.6968 45.7083 18.5812V18.5765Z" fill="url(#paint1_radial_5649_9996)"/>
<path fill-rule="evenodd" clip-rule="evenodd" d="M50.6141 45.5252C45.9422 45.5252 42.1562 41.6315 42.1562 36.8268C42.1562 32.0221 45.9422 28.1252 50.6141 28.1252C55.2859 28.1252 59.0719 32.0206 59.0719 36.8237C59.0719 41.6268 55.2937 45.5252 50.6141 45.5252ZM50.6734 42.7659C53.5891 42.7659 55.9547 40.1096 55.9547 36.8284C55.9547 33.5471 53.5891 30.8909 50.6734 30.8909C47.7578 30.8909 45.3922 33.5471 45.3922 36.8284C45.3922 40.1096 47.7578 42.7659 50.6734 42.7659Z" fill="#F2F2F2"/>
<path fill-rule="evenodd" clip-rule="evenodd" d="M33.1602 21.1252H39.2539V45.4284H35.9164V23.7909H33.1602V21.1252Z" fill="#F2F2F2"/>
<path fill-rule="evenodd" clip-rule="evenodd" d="M28.6194 28.3766H31.7835V48.6719C31.7835 50.5219 29.8382 52.4469 27.9413 53.2766C27.0465 53.6682 25.3929 53.9011 22.9804 53.975V51.9547C25.3377 51.6922 26.9293 51.1677 27.7554 50.3813C28.2318 49.7195 28.5299 48.9463 28.621 48.136V42.1735C27.7741 43.9672 26.709 45.1563 25.4257 45.7406C24.0913 46.461 21.3741 46.3438 20.2695 45.7406C19.1648 45.1375 17.5335 43.5531 16.7882 41.1953C16.582 40.5438 16.0679 38.7719 16.121 36.8938C16.1695 35.1047 16.7616 33.2125 17.2538 32.4344C18.0991 31.1063 19.4304 29.4422 21.4491 28.7469C22.4356 28.4063 24.2627 28.2839 26.9304 28.3797V30.3875C24.9512 30.2531 23.7142 30.3203 23.2195 30.5891C22.482 30.9891 20.8179 31.4828 20.2695 35.1078C19.721 38.7328 20.2851 41.7016 22.0257 42.6313C22.6226 42.9516 23.6773 43.3297 24.6523 42.9953C26.5273 42.3563 28.2866 40.0719 28.421 38.525C28.5554 36.9781 28.6241 33.5735 28.6241 28.3766H28.6194Z" fill="#F2F2F2"/>
</g>
<defs>
<linearGradient id="paint0_linear_5649_9996" x1="58.1834" y1="21.4011" x2="58.1834" y2="51.4301" gradientUnits="userSpaceOnUse">
<stop stop-color="white" stop-opacity="0"/>
<stop offset="0.64" stop-color="white" stop-opacity="0.43"/>
<stop offset="1" stop-color="white" stop-opacity="0.42"/>
</linearGradient>
<radialGradient id="paint1_radial_5649_9996" cx="0" cy="0" r="1" gradientUnits="userSpaceOnUse" gradientTransform="translate(48.7621 15.9897) rotate(26.7606) scale(15.9043 6.62386)">
<stop offset="0.13" stop-color="white"/>
<stop offset="0.29" stop-color="white" stop-opacity="0.69"/>
<stop offset="0.45" stop-color="white" stop-opacity="0.4"/>
<stop offset="0.59" stop-color="white" stop-opacity="0.18"/>
<stop offset="0.69" stop-color="white" stop-opacity="0.05"/>
<stop offset="0.74" stop-color="white" stop-opacity="0"/>
</radialGradient>
<clipPath id="clip0_5649_9996">
<rect width="75" height="75" fill="white" transform="translate(0.136719)"/>
</clipPath>
</defs>
</svg>
