<svg width="59" height="59" viewBox="0 0 59 59" fill="none" xmlns="http://www.w3.org/2000/svg">
<g clip-path="url(#clip0_5649_10008)">
<path d="M52.5201 27.4346C52.5201 27.2463 51.1985 26.1809 50.9172 26.3811C50.9995 26.4693 51.2926 26.9079 51.8075 27.4847C55.3171 32.4352 53.3043 37.5108 50.3917 40.5688L50.1843 40.7571C49.7219 42.1425 49.4196 43.5764 49.2834 45.0306C48.969 45.6429 48.8727 46.3441 49.0105 47.0185C51.3193 45.5627 53.1849 43.5018 54.4043 41.0598C56.7996 36.6062 56.0238 30.9634 52.5201 27.4346Z" fill="#0D0D0D"/>
<path d="M17.4817 32.9488C20.4724 30.5331 23.8595 28.6544 27.4923 27.3965V45.9328C27.4923 49.1028 28.3265 50.223 31.002 50.4947C33.6774 50.8164 36.391 50.5204 38.9342 49.6295C41.5071 48.629 43.6727 46.7988 45.0883 44.4288C46.4812 42.0992 47.6759 39.6566 48.66 37.127C49.2093 36.8887 50.4035 36.0366 50.9993 36.2928C49.0103 47.4344 48.2857 50.6425 47.9342 52.585H12.3573C12.218 52.3522 12.1445 52.0859 12.1445 51.8146C12.1445 51.5433 12.218 51.277 12.3573 51.0441C13.1295 50.8809 13.9482 50.7426 14.6966 50.5174C16.3305 50.3267 17.533 48.7894 17.4233 47.0339C17.5425 45.7802 17.4936 44.5313 17.5044 43.274C17.4936 39.8418 17.4817 36.3953 17.4817 32.9488Z" fill="#0D0D0D"/>
<path d="M12.3194 7.29439C12.2092 7.03698 12.1523 6.75986 12.1523 6.47984C12.1523 6.19981 12.2092 5.92269 12.3194 5.66528H33.5324C33.6578 5.89607 33.7236 6.15458 33.7236 6.41727C33.7236 6.67996 33.6578 6.93847 33.5324 7.16926C32.7417 7.40006 31.9225 7.51802 31.0988 7.51963C28.7583 7.94627 27.7882 9.08676 27.5892 11.7682C27.47 13.8871 27.5308 16.0167 27.5189 18.1356V21.8074C23.9633 22.6408 20.571 24.0596 17.4809 26.0059V13.7488C17.4785 8.72328 16.8814 7.95819 12.3194 7.29439Z" fill="#0D0D0D"/>
<path d="M31.7524 22.1328C22.1828 23.2053 14.4377 28.2237 7.98083 35.8818C3.34736 42.1683 2.09008 50.5795 4.65827 58.1018C5.43767 47.3988 10.7933 37.6838 19.1641 31.7835C29.6943 24.6271 42.8666 23.9502 46.4239 24.552C41.7904 21.9576 36.865 21.5441 31.7524 22.1328Z" fill="#0D0D0D"/>
</g>
<defs>
<clipPath id="clip0_5649_10008">
<rect width="57.2034" height="57.2034" fill="white" transform="translate(0.964844 0.898193)"/>
</clipPath>
</defs>
</svg>
