<svg width="60" height="72" viewBox="0 0 60 72" fill="none" xmlns="http://www.w3.org/2000/svg">
<g clip-path="url(#clip0_5649_10015)">
<path d="M57.3867 40.6347L43.2515 17.0634C41.4559 14.0801 36.9897 14.0801 35.2094 17.0634L21.0742 40.6347C19.2785 43.618 21.5193 47.3398 25.0953 47.3398H53.381C56.957 47.3398 59.1978 43.618 57.4021 40.6347H57.3867ZM51.9537 43.6623C52.4601 42.6285 52.5062 41.4618 51.8309 40.3246L39.9825 20.5784C39.4607 19.7071 38.6779 19.1459 37.8031 18.8948C39.3379 18.4222 41.4098 18.9391 42.3307 20.4751L53.4731 39.0397C54.5167 40.7676 53.5345 42.7319 51.9537 43.6623Z" fill="#0D0D0D"/>
<path d="M20.4134 9.07355C22.9394 9.07355 24.987 7.10308 24.987 4.67239C24.987 2.2417 22.9394 0.27124 20.4134 0.27124C17.8875 0.27124 15.8398 2.2417 15.8398 4.67239C15.8398 7.10308 17.8875 9.07355 20.4134 9.07355Z" fill="#0D0D0D"/>
<path d="M39.2142 10.2994C41.7402 10.2994 43.7878 8.32891 43.7878 5.89822C43.7878 3.46753 41.7402 1.49707 39.2142 1.49707C36.6883 1.49707 34.6406 3.46753 34.6406 5.89822C34.6406 8.32891 36.6883 10.2994 39.2142 10.2994Z" fill="#0D0D0D"/>
<path d="M18.6784 40.62L28.992 23.4289L24.3724 15.7342C22.5767 12.7657 18.1259 12.7657 16.3302 15.7342L2.17965 39.3203C0.383973 42.3036 2.62473 46.0254 6.20074 46.0254H19.3997C18.0184 44.6666 17.558 42.5104 18.6784 40.6347V40.62ZM7.62807 42.4218C6.04726 41.4913 5.06501 39.527 6.10865 37.7991L17.251 19.2345C18.1719 17.6985 20.2438 17.1816 21.7786 17.6542C20.9038 17.92 20.1211 18.4813 19.5992 19.3379L7.75085 39.084C7.07555 40.2064 7.12159 41.3879 7.62807 42.4218Z" fill="#0D0D0D"/>
<path d="M0.660156 54.7539H3.26926V55.9649C3.26926 56.3489 3.22322 56.6886 3.22322 56.6886H3.26926C3.80643 55.6548 5.11098 54.5176 6.81457 54.5176C8.51816 54.5176 9.54645 55.256 9.99153 56.6738H10.0376C10.6361 55.5366 12.0481 54.5176 13.7517 54.5176C16.0232 54.5176 17.3124 55.7434 17.3124 58.5052V65.2399H14.5958V58.9926C14.5958 57.7963 14.3656 56.8954 13.1071 56.8954C11.7258 56.8954 10.805 57.9587 10.4827 59.288C10.3752 59.7015 10.3599 60.1446 10.3599 60.6467V65.2546H7.64334V59.0073C7.64334 57.8701 7.44382 56.9101 6.16997 56.9101C4.75798 56.9101 3.83712 57.9735 3.49947 59.3175C3.39204 59.7015 3.37669 60.1741 3.37669 60.6467V65.2546H0.660156V54.7687V54.7539Z" fill="#0D0D0D"/>
<path d="M25.6918 58.6531H26.0602V58.5054C26.0602 57.1319 25.17 56.6593 23.9729 56.6593C22.4074 56.6593 20.9801 57.6636 20.9801 57.6636L19.9518 55.788C19.9518 55.788 21.6401 54.4883 24.2185 54.4883C27.0731 54.4883 28.746 56.0095 28.746 58.6531V65.2106H26.2443V64.354C26.2443 63.9404 26.2904 63.6155 26.2904 63.6155H26.2443C26.2443 63.6155 25.4156 65.4616 22.9293 65.4616C20.9801 65.4616 19.2305 64.2949 19.2305 62.1977C19.2305 58.8747 23.9115 58.6384 25.6765 58.6384L25.6918 58.6531ZM23.6199 63.4383C25.0472 63.4383 26.0755 61.9614 26.0755 60.6913V60.4402H25.5997C24.2185 60.4402 21.9624 60.6174 21.9624 62.0795C21.9624 62.7737 22.4995 63.4383 23.6046 63.4383H23.6199Z" fill="#0D0D0D"/>
<path d="M36.6979 54.5029C39.5372 54.5029 40.8878 56.0684 40.8878 56.0684L39.6907 57.8555C39.6907 57.8555 38.555 56.7183 36.8514 56.7183C34.8408 56.7183 33.5363 58.1804 33.5363 59.9674C33.5363 61.7545 34.8562 63.2609 36.9281 63.2609C38.7698 63.2609 40.1358 61.9317 40.1358 61.9317L41.1794 63.7778C41.1794 63.7778 39.614 65.491 36.6979 65.491C33.0912 65.491 30.7891 63.0394 30.7891 59.997C30.7891 56.9546 33.0912 54.5177 36.6979 54.5177V54.5029Z" fill="#0D0D0D"/>
<path d="M47.9786 54.5029C51.1248 54.5029 52.8131 56.7035 52.8131 59.4801C52.8131 59.7902 52.7517 60.4844 52.7517 60.4844H45.2313C45.4002 62.3157 46.8735 63.2609 48.5004 63.2609C50.25 63.2609 51.6467 62.1089 51.6467 62.1089L52.6903 63.9846C52.6903 63.9846 51.0327 65.491 48.3162 65.491C44.7095 65.491 42.4688 62.9803 42.4688 59.997C42.4688 56.7773 44.7556 54.5177 47.9939 54.5177L47.9786 54.5029ZM50.0658 58.6973C50.0198 57.2795 49.0989 56.5263 47.9018 56.5263C46.5205 56.5263 45.5536 57.3533 45.2927 58.6973H50.0505H50.0658Z" fill="#0D0D0D"/>
<path d="M54.8982 50.6334H57.584V61.5625C57.584 62.7144 57.983 62.9951 58.689 62.9951C58.9039 62.9951 59.0881 62.9803 59.0881 62.9803V65.2547C59.0881 65.2547 58.689 65.3138 58.2286 65.3138C56.7399 65.3138 54.8828 64.9446 54.8828 61.9464V50.6187L54.8982 50.6334Z" fill="#0D0D0D"/>
<path d="M39.1829 68.2084C40.0271 68.2084 40.4261 68.6662 40.4261 68.6662L40.0731 69.1979C40.0731 69.1979 39.7355 68.8582 39.229 68.8582C38.6304 68.8582 38.2467 69.2865 38.2467 69.8182C38.2467 70.3499 38.6458 70.7929 39.2443 70.7929C39.7815 70.7929 40.1959 70.3942 40.1959 70.3942L40.5028 70.9406C40.5028 70.9406 40.0424 71.4428 39.1676 71.4428C38.0933 71.4428 37.418 70.7191 37.418 69.8182C37.418 68.9173 38.1086 68.1936 39.1676 68.1936L39.1829 68.2084Z" fill="#0D0D0D"/>
<path d="M42.7427 69.4342H42.8501V69.3899C42.8501 68.9764 42.5892 68.8434 42.2362 68.8434C41.7758 68.8434 41.346 69.1388 41.346 69.1388L41.0391 68.5776C41.0391 68.5776 41.5456 68.1936 42.2976 68.1936C43.1417 68.1936 43.6328 68.6367 43.6328 69.4342V71.3689H42.8962V71.1179C42.8962 70.9997 42.8962 70.8963 42.8962 70.8963C42.8962 70.8963 42.6506 71.4428 41.9139 71.4428C41.3307 71.4428 40.8242 71.0883 40.8242 70.468C40.8242 69.4785 42.2055 69.4194 42.7273 69.4194L42.7427 69.4342ZM42.1288 70.852C42.5585 70.852 42.8501 70.4089 42.8501 70.0397V69.9659H42.712C42.2976 69.9659 41.6376 70.025 41.6376 70.4533C41.6376 70.66 41.7911 70.852 42.1288 70.852Z" fill="#0D0D0D"/>
<path d="M44.4766 68.2821H45.2439V68.8138C45.2439 68.9319 45.2439 69.0353 45.2439 69.0353C45.3821 68.5922 45.7811 68.2378 46.2722 68.2378C46.349 68.2378 46.4104 68.2378 46.4104 68.2378V69.0058C46.4104 69.0058 46.3336 69.0058 46.2262 69.0058C45.8885 69.0058 45.5049 69.1978 45.3514 69.6556C45.3053 69.8033 45.2746 69.9805 45.2746 70.1578V71.3836H44.4766V68.2821Z" fill="#0D0D0D"/>
<path d="M48.3769 68.2083C49.3131 68.2083 49.8042 68.8581 49.8042 69.6851C49.8042 69.7738 49.7888 69.9805 49.7888 69.9805H47.5634C47.6095 70.527 48.0546 70.8076 48.5303 70.8076C49.0521 70.8076 49.4665 70.4679 49.4665 70.4679L49.7735 71.0291C49.7735 71.0291 49.2824 71.4722 48.4843 71.4722C47.4099 71.4722 46.75 70.7337 46.75 69.8476C46.75 68.8876 47.4253 68.223 48.3922 68.223L48.3769 68.2083ZM48.9908 69.4488C48.9908 69.0353 48.6992 68.799 48.3462 68.799C47.9318 68.799 47.6555 69.0501 47.5788 69.4488H48.9908Z" fill="#0D0D0D"/>
<path d="M51.9528 67.071H52.7509V70.3054C52.7509 70.6451 52.8737 70.7337 53.0732 70.7337C53.1346 70.7337 53.196 70.7337 53.196 70.7337V71.4131C53.196 71.4131 53.0732 71.4279 52.9351 71.4279C52.49 71.4279 51.9375 71.3245 51.9375 70.4236V67.071H51.9528Z" fill="#0D0D0D"/>
<path d="M53.9183 68.9467H53.5039V68.3264H53.9336V67.4255H54.7164V68.3264H55.4531V68.9467H54.7164V70.1578C54.7164 70.6747 55.1308 70.7486 55.361 70.7486C55.4531 70.7486 55.4991 70.7486 55.4991 70.7486V71.4279C55.4991 71.4279 55.407 71.4427 55.2535 71.4427C54.8085 71.4427 53.9183 71.3098 53.9183 70.2759V68.9763V68.9467Z" fill="#0D0D0D"/>
<path d="M57.3994 68.2083C58.1054 68.2083 58.3356 68.607 58.3356 68.607C58.3356 68.607 58.3356 68.5332 58.3356 68.4298V67.071H59.1337V71.3836H58.3817V71.1325C58.3817 71.0144 58.3817 70.9257 58.3817 70.9257C58.3817 70.9257 58.1054 71.4574 57.3687 71.4574C56.4939 71.4574 55.9414 70.7928 55.9414 69.8328C55.9414 68.8729 56.5553 68.2083 57.3994 68.2083ZM57.5529 70.8076C57.9673 70.8076 58.3663 70.5122 58.3663 69.8328C58.3663 69.3455 58.1054 68.8729 57.5683 68.8729C57.1232 68.8729 56.7548 69.2125 56.7548 69.8328C56.7548 70.4531 57.0771 70.8076 57.5529 70.8076Z" fill="#0D0D0D"/>
</g>
<defs>
<clipPath id="clip0_5649_10015">
<rect width="58.4746" height="71.1864" fill="white" transform="translate(0.660156 0.27124)"/>
</clipPath>
</defs>
</svg>
