<svg width="56" height="57" viewBox="0 0 56 57" fill="none" xmlns="http://www.w3.org/2000/svg">
<rect x="0.167969" y="0.641602" width="55.3962" height="55.3962" rx="27.6981" fill="#D2FFFC"/>
<path d="M27.8693 21.0546C26.4997 21.0546 25.1609 21.4607 24.0222 22.2216C22.8835 22.9825 21.9959 24.0639 21.4718 25.3292C20.9477 26.5945 20.8106 27.9868 21.0778 29.33C21.345 30.6733 22.0045 31.9071 22.9729 32.8755C23.9413 33.8439 25.1751 34.5034 26.5183 34.7706C27.8616 35.0378 29.2539 34.9006 30.5192 34.3765C31.7844 33.8524 32.8659 32.9649 33.6268 31.8262C34.3877 30.6874 34.7938 29.3487 34.7938 27.9791C34.7919 26.1432 34.0617 24.383 32.7635 23.0848C31.4653 21.7867 29.7052 21.0565 27.8693 21.0546ZM27.8693 31.4414C27.1845 31.4414 26.5151 31.2383 25.9457 30.8579C25.3764 30.4774 24.9326 29.9367 24.6705 29.3041C24.4085 28.6714 24.3399 27.9753 24.4735 27.3037C24.6071 26.632 24.9369 26.0151 25.4211 25.5309C25.9053 25.0467 26.5222 24.717 27.1938 24.5834C27.8654 24.4498 28.5616 24.5183 29.1942 24.7804C29.8268 25.0424 30.3676 25.4862 30.748 26.0556C31.1285 26.6249 31.3315 27.2943 31.3315 27.9791C31.3315 28.8974 30.9667 29.778 30.3174 30.4273C29.6681 31.0766 28.7875 31.4414 27.8693 31.4414ZM34.7938 12.3989H20.9447C18.6499 12.4016 16.4499 13.3144 14.8272 14.9371C13.2045 16.5597 12.2917 18.7598 12.2891 21.0546V34.9036C12.2917 37.1984 13.2045 39.3985 14.8272 41.0212C16.4499 42.6438 18.6499 43.5566 20.9447 43.5593H34.7938C37.0886 43.5566 39.2886 42.6438 40.9113 41.0212C42.534 39.3985 43.4468 37.1984 43.4494 34.9036V21.0546C43.4468 18.7598 42.534 16.5597 40.9113 14.9371C39.2886 13.3144 37.0886 12.4016 34.7938 12.3989ZM39.9872 34.9036C39.9872 36.281 39.44 37.602 38.4661 38.5759C37.4921 39.5499 36.1712 40.097 34.7938 40.097H20.9447C19.5673 40.097 18.2464 39.5499 17.2724 38.5759C16.2985 37.602 15.7513 36.281 15.7513 34.9036V21.0546C15.7513 19.6772 16.2985 18.3563 17.2724 17.3823C18.2464 16.4083 19.5673 15.8612 20.9447 15.8612H34.7938C36.1712 15.8612 37.4921 16.4083 38.4661 17.3823C39.44 18.3563 39.9872 19.6772 39.9872 21.0546V34.9036ZM37.679 20.4775C37.679 20.9341 37.5436 21.3803 37.29 21.7599C37.0364 22.1395 36.6759 22.4353 36.2541 22.61C35.8324 22.7847 35.3683 22.8304 34.9205 22.7414C34.4728 22.6523 34.0615 22.4325 33.7387 22.1097C33.4159 21.7869 33.1961 21.3756 33.107 20.9278C33.0179 20.4801 33.0636 20.016 33.2383 19.5942C33.413 19.1725 33.7089 18.812 34.0885 18.5584C34.468 18.3047 34.9143 18.1694 35.3708 18.1694C35.983 18.1694 36.5701 18.4125 37.0029 18.8454C37.4358 19.2783 37.679 19.8654 37.679 20.4775Z" fill="#063972"/>
</svg>
