<svg width="57" height="57" viewBox="0 0 57 57" fill="none" xmlns="http://www.w3.org/2000/svg">
<rect x="0.796875" y="0.641602" width="55.3962" height="55.3962" rx="27.6981" fill="#D2FFFC"/>
<path d="M41.1931 12.7598H15.8032C15.038 12.7598 14.3041 13.0637 13.763 13.6048C13.2219 14.1459 12.918 14.8798 12.918 15.645V41.0349C12.918 41.8001 13.2219 42.534 13.763 43.0751C14.3041 43.6162 15.038 43.9201 15.8032 43.9201H41.1931C41.9583 43.9201 42.6922 43.6162 43.2333 43.0751C43.7744 42.534 44.0783 41.8001 44.0783 41.0349V15.645C44.0783 14.8798 43.7744 14.1459 43.2333 13.6048C42.6922 13.0637 41.9583 12.7598 41.1931 12.7598ZM40.6161 40.4579H16.3802V16.222H40.6161V40.4579ZM26.19 35.2645V27.1859C26.1903 26.8261 26.3027 26.4754 26.5116 26.1825C26.7205 25.8895 27.0154 25.669 27.3554 25.5514C27.6954 25.4338 28.0636 25.4251 28.4088 25.5265C28.754 25.6278 29.059 25.8342 29.2815 26.1169C30.1608 25.656 31.1441 25.4298 32.1364 25.46C33.1286 25.4903 34.0963 25.7761 34.9459 26.2897C35.7954 26.8033 36.4981 27.5274 36.986 28.392C37.4739 29.2566 37.7304 30.2324 37.7309 31.2252V35.2645C37.7309 35.7236 37.5485 36.1639 37.2238 36.4886C36.8992 36.8132 36.4589 36.9956 35.9997 36.9956C35.5406 36.9956 35.1003 36.8132 34.7756 36.4886C34.451 36.1639 34.2686 35.7236 34.2686 35.2645V31.2252C34.2686 30.613 34.0254 30.0259 33.5925 29.593C33.1597 29.1602 32.5726 28.917 31.9604 28.917C31.3483 28.917 30.7612 29.1602 30.3283 29.593C29.8954 30.0259 29.6522 30.613 29.6522 31.2252V35.2645C29.6522 35.7236 29.4699 36.1639 29.1452 36.4886C28.8206 36.8132 28.3802 36.9956 27.9211 36.9956C27.462 36.9956 27.0217 36.8132 26.697 36.4886C26.3724 36.1639 26.19 35.7236 26.19 35.2645ZM23.8818 27.1859V35.2645C23.8818 35.7236 23.6994 36.1639 23.3748 36.4886C23.0501 36.8132 22.6098 36.9956 22.1507 36.9956C21.6915 36.9956 21.2512 36.8132 20.9266 36.4886C20.6019 36.1639 20.4195 35.7236 20.4195 35.2645V27.1859C20.4195 26.7267 20.6019 26.2864 20.9266 25.9618C21.2512 25.6371 21.6915 25.4547 22.1507 25.4547C22.6098 25.4547 23.0501 25.6371 23.3748 25.9618C23.6994 26.2864 23.8818 26.7267 23.8818 27.1859ZM19.8425 21.4154C19.8425 20.9589 19.9779 20.5126 20.2315 20.1331C20.4851 19.7535 20.8456 19.4576 21.2674 19.2829C21.6891 19.1082 22.1532 19.0625 22.601 19.1516C23.0487 19.2407 23.46 19.4605 23.7828 19.7833C24.1056 20.1061 24.3254 20.5174 24.4145 20.9651C24.5036 21.4129 24.4579 21.877 24.2831 22.2987C24.1084 22.7205 23.8126 23.081 23.433 23.3346C23.0534 23.5882 22.6072 23.7236 22.1507 23.7236C21.5385 23.7236 20.9514 23.4804 20.5185 23.0476C20.0857 22.6147 19.8425 22.0276 19.8425 21.4154Z" fill="#063972"/>
</svg>
