<svg width="56" height="57" viewBox="0 0 56 57" fill="none" xmlns="http://www.w3.org/2000/svg">
<rect x="0.0546875" y="0.641602" width="55.3962" height="55.3962" rx="27.6981" fill="#D2FFFC"/>
<path d="M44.4881 31.4143C44.4881 33.8436 44.0019 35.934 43.0815 37.4603C41.9 39.4208 40.0636 40.458 37.7713 40.458C33.3959 40.458 30.4544 34.9689 27.3412 29.1581C25.0792 24.937 22.2719 19.6844 19.9637 19.6844C18.8515 19.6844 17.4882 21.0362 16.4062 23.2116C15.1686 25.7708 14.5115 28.5717 14.4818 31.4143C14.4818 33.1887 14.8049 34.7006 15.3906 35.6729C15.9345 36.576 16.6803 36.9958 17.7363 36.9958C19.7199 36.9958 22.155 32.8122 22.9557 31.4431C23.187 31.0464 23.5664 30.7578 24.0105 30.6407C24.4546 30.5237 24.927 30.5879 25.3237 30.8192C25.7205 31.0505 26.0091 31.4299 26.1261 31.874C26.2431 32.3181 26.1789 32.7905 25.9477 33.1873C24.6623 35.3916 23.563 36.938 22.4854 38.0604C20.9375 39.6732 19.3867 40.458 17.7363 40.458C15.444 40.458 13.6076 39.4208 12.4261 37.4603C11.5057 35.934 11.0195 33.8436 11.0195 31.4143C11.0195 25.0711 14.4212 16.2222 19.9637 16.2222C24.3391 16.2222 27.2806 21.7113 30.3938 27.5221C32.6587 31.7432 35.4674 36.9958 37.7713 36.9958C38.8273 36.9958 39.5731 36.576 40.117 35.6729C40.7027 34.7006 41.0258 33.1887 41.0258 31.4143C40.9965 28.5718 40.3399 25.7709 39.1028 23.2116C38.0209 21.0362 36.6576 19.6844 35.5439 19.6844C34.7187 19.6844 33.7248 20.4057 32.588 21.8238C32.301 22.1823 31.8834 22.4121 31.427 22.4627C30.9706 22.5133 30.5128 22.3805 30.1543 22.0936C29.7958 21.8066 29.566 21.389 29.5154 20.9326C29.4648 20.4762 29.5976 20.0184 29.8845 19.6599C31.7383 17.3474 33.5892 16.2222 35.5439 16.2222C38.0901 16.2222 40.4488 18.1567 42.2015 21.6695C43.6718 24.7098 44.4526 28.0373 44.4881 31.4143Z" fill="#063972"/>
</svg>
