<svg width="56" height="57" viewBox="0 0 56 57" fill="none" xmlns="http://www.w3.org/2000/svg">
<rect x="0.425781" y="0.641602" width="55.3962" height="55.3962" rx="27.6981" fill="#D2FFFC"/>
<path d="M41.1266 40.1056L32.3267 26.2854L40.942 16.8089C41.2443 16.4681 41.4001 16.0219 41.3756 15.5671C41.3511 15.1122 41.1484 14.6853 40.8112 14.3789C40.4741 14.0726 40.0298 13.9114 39.5747 13.9304C39.1196 13.9495 38.6903 14.1471 38.3799 14.4805L30.4066 23.2574L24.9694 14.7157C24.8131 14.47 24.5974 14.2677 24.3422 14.1275C24.0871 13.9873 23.8006 13.9137 23.5095 13.9136H16.5849C16.2748 13.9137 15.9705 13.9972 15.7036 14.1552C15.4368 14.3132 15.2173 14.54 15.0681 14.8118C14.9189 15.0837 14.8455 15.3906 14.8555 15.7006C14.8655 16.0105 14.9586 16.3121 15.125 16.5737L23.9249 30.394L15.3039 39.8705C15.1478 40.0381 15.0265 40.2351 14.9471 40.45C14.8678 40.6649 14.8318 40.8934 14.8414 41.1223C14.8509 41.3512 14.9058 41.5759 15.0029 41.7834C15.0999 41.9909 15.2372 42.1771 15.4067 42.3311C15.5762 42.4852 15.7747 42.6041 15.9905 42.6809C16.2063 42.7577 16.4352 42.7909 16.664 42.7786C16.8927 42.7663 17.1168 42.7087 17.3231 42.6092C17.5294 42.5097 17.7139 42.3702 17.866 42.1988L25.845 33.422L31.2822 41.9637C31.4385 42.2094 31.6542 42.4117 31.9094 42.5519C32.1646 42.6921 32.451 42.7656 32.7422 42.7658H39.6667C39.9768 42.7656 40.2812 42.6822 40.548 42.5242C40.8148 42.3662 41.0343 42.1394 41.1835 41.8675C41.3327 41.5957 41.4061 41.2887 41.3961 40.9788C41.3861 40.6688 41.293 40.3673 41.1266 40.1056ZM33.6928 39.3035L19.7385 17.3758H22.5588L36.5132 39.3035H33.6928Z" fill="#063972"/>
</svg>
