<svg width="1728" height="5415" viewBox="0 0 1728 5415" fill="none" xmlns="http://www.w3.org/2000/svg">
<g filter="url(#filter0_f_5812_436)">
<circle cx="1240.44" cy="453.436" r="278.436" fill="#21BBEC" fill-opacity="0.32"/>
</g>
<g filter="url(#filter1_f_5812_436)">
<circle cx="191" cy="182" r="148" fill="#21BBEC" fill-opacity="0.53"/>
</g>
<g style="mix-blend-mode:color-burn" filter="url(#filter2_f_5812_436)">
<path d="M806 195.82C806 199.47 805.678 204.336 804.454 210.351C801.684 224.612 793.568 248.403 770.895 280.709C756.274 301.525 735.339 316.665 708.608 325.721C686.128 333.291 664.614 334.981 650.508 334.981C642.65 334.981 637.754 334.508 637.69 334.508H637.11L636.531 334.44L505 333.899C506.932 308.081 522.778 275.032 546.546 248.065C563.615 228.735 599.3 196.091 647.094 195.145L805.936 195.82H806Z" fill="url(#paint0_linear_5812_436)"/>
</g>
<g style="mix-blend-mode:color-burn" filter="url(#filter3_f_5812_436)">
<path d="M1745 777.08C1745 780.729 1744.68 785.596 1743.45 791.611C1740.68 805.871 1732.57 829.662 1709.9 861.968C1695.27 882.785 1674.34 897.924 1647.61 906.981C1625.13 914.55 1603.61 916.24 1589.51 916.24C1581.65 916.24 1576.75 915.767 1576.69 915.767H1576.11L1575.53 915.699L1444 915.159C1445.93 889.341 1461.78 856.291 1485.55 829.324C1502.62 809.994 1538.3 777.35 1586.09 776.404L1744.94 777.08H1745Z" fill="url(#paint1_linear_5812_436)"/>
</g>
<g style="mix-blend-mode:color-burn" filter="url(#filter4_f_5812_436)">
<path d="M82.3221 632.901C84.0707 629.741 86.6812 625.694 90.6231 621.124C99.8546 610.219 118.282 593.85 153.397 577.703C176.033 567.304 201.416 565.116 228.906 571.221C252.001 576.395 271.442 586.157 283.658 593.517C290.464 597.617 294.477 600.581 294.532 600.615L295.034 600.917L295.504 601.278L409.154 670.376C395.11 691.727 365.552 712.081 332.048 723.034C308.004 730.867 261.459 740.518 219.615 716.4L82.3778 632.935L82.3221 632.901Z" fill="url(#paint2_linear_5812_436)"/>
</g>
<g filter="url(#filter5_f_5812_436)">
<ellipse cx="1231.5" cy="863.5" rx="436.5" ry="131.5" fill="white"/>
</g>
<path d="M921.861 316.314C979.851 309.78 1038.71 300.553 1078.67 292.004C1382.39 227.021 828.463 148.71 707.427 245.185C666.195 278.05 782.429 305.523 921.861 316.314ZM921.861 316.314C825.062 327.221 730.682 333 730.682 333M921.861 316.314C1008.33 323.006 1103.71 322.464 1176 315.29" stroke="#78ECF9" stroke-width="2" stroke-linecap="square"/>
<g filter="url(#filter6_f_5812_436)">
<circle cx="1593" cy="4992" r="434" fill="#21BBEC" fill-opacity="0.32"/>
</g>
<g style="mix-blend-mode:luminosity" filter="url(#filter7_f_5812_436)">
<path d="M619.242 1969.17C613.051 1980.36 603.809 1994.68 589.851 2010.87C557.165 2049.47 491.917 2107.42 367.575 2164.58C287.418 2201.38 197.53 2209.12 100.182 2187.49C18.3941 2169.16 -50.4558 2134.59 -93.7205 2108.52C-117.822 2094 -132.034 2083.5 -132.231 2083.38L-134.009 2082.31L-135.673 2081.03L-538.164 1836.32C-488.442 1760.73 -383.779 1688.68 -265.136 1649.92C-179.994 1622.19 -15.1726 1588.04 133.019 1673.46L619.045 1969.05L619.242 1969.17Z" fill="url(#paint3_linear_5812_436)" fill-opacity="0.27"/>
</g>
<g style="mix-blend-mode:luminosity" filter="url(#filter8_f_5812_436)">
<path d="M2559.24 2016.13C2553.05 2027.32 2543.81 2041.64 2529.85 2057.83C2497.17 2096.43 2431.92 2154.38 2307.57 2211.54C2227.42 2248.34 2137.53 2256.08 2040.18 2234.45C1958.39 2216.12 1889.54 2181.55 1846.28 2155.48C1822.18 2140.96 1807.97 2130.46 1807.77 2130.34L1805.99 2129.27L1804.33 2127.99L1401.84 1883.28C1451.56 1807.69 1556.22 1735.64 1674.86 1696.88C1760.01 1669.15 1924.83 1635 2073.02 1720.42L2559.04 2016.01L2559.24 2016.13Z" fill="url(#paint4_linear_5812_436)" fill-opacity="0.27"/>
</g>
<defs>
<filter id="filter0_f_5812_436" x="527" y="-260" width="1426.87" height="1426.87" filterUnits="userSpaceOnUse" color-interpolation-filters="sRGB">
<feFlood flood-opacity="0" result="BackgroundImageFix"/>
<feBlend mode="normal" in="SourceGraphic" in2="BackgroundImageFix" result="shape"/>
<feGaussianBlur stdDeviation="217.5" result="effect1_foregroundBlur_5812_436"/>
</filter>
<filter id="filter1_f_5812_436" x="-392" y="-401" width="1166" height="1166" filterUnits="userSpaceOnUse" color-interpolation-filters="sRGB">
<feFlood flood-opacity="0" result="BackgroundImageFix"/>
<feBlend mode="normal" in="SourceGraphic" in2="BackgroundImageFix" result="shape"/>
<feGaussianBlur stdDeviation="217.5" result="effect1_foregroundBlur_5812_436"/>
</filter>
<filter id="filter2_f_5812_436" x="492.5" y="182.645" width="326" height="164.836" filterUnits="userSpaceOnUse" color-interpolation-filters="sRGB">
<feFlood flood-opacity="0" result="BackgroundImageFix"/>
<feBlend mode="normal" in="SourceGraphic" in2="BackgroundImageFix" result="shape"/>
<feGaussianBlur stdDeviation="6.25" result="effect1_foregroundBlur_5812_436"/>
</filter>
<filter id="filter3_f_5812_436" x="1431.5" y="763.904" width="326" height="164.836" filterUnits="userSpaceOnUse" color-interpolation-filters="sRGB">
<feFlood flood-opacity="0" result="BackgroundImageFix"/>
<feBlend mode="normal" in="SourceGraphic" in2="BackgroundImageFix" result="shape"/>
<feGaussianBlur stdDeviation="6.25" result="effect1_foregroundBlur_5812_436"/>
</filter>
<filter id="filter4_f_5812_436" x="69.8203" y="555.346" width="351.832" height="188.879" filterUnits="userSpaceOnUse" color-interpolation-filters="sRGB">
<feFlood flood-opacity="0" result="BackgroundImageFix"/>
<feBlend mode="normal" in="SourceGraphic" in2="BackgroundImageFix" result="shape"/>
<feGaussianBlur stdDeviation="6.25" result="effect1_foregroundBlur_5812_436"/>
</filter>
<filter id="filter5_f_5812_436" x="711.6" y="648.6" width="1039.8" height="429.8" filterUnits="userSpaceOnUse" color-interpolation-filters="sRGB">
<feFlood flood-opacity="0" result="BackgroundImageFix"/>
<feBlend mode="normal" in="SourceGraphic" in2="BackgroundImageFix" result="shape"/>
<feGaussianBlur stdDeviation="41.7" result="effect1_foregroundBlur_5812_436"/>
</filter>
<filter id="filter6_f_5812_436" x="724" y="4123" width="1738" height="1738" filterUnits="userSpaceOnUse" color-interpolation-filters="sRGB">
<feFlood flood-opacity="0" result="BackgroundImageFix"/>
<feBlend mode="normal" in="SourceGraphic" in2="BackgroundImageFix" result="shape"/>
<feGaussianBlur stdDeviation="217.5" result="effect1_foregroundBlur_5812_436"/>
</filter>
<filter id="filter7_f_5812_436" x="-649.064" y="1508.27" width="1379.21" height="802.086" filterUnits="userSpaceOnUse" color-interpolation-filters="sRGB">
<feFlood flood-opacity="0" result="BackgroundImageFix"/>
<feBlend mode="normal" in="SourceGraphic" in2="BackgroundImageFix" result="shape"/>
<feGaussianBlur stdDeviation="55.45" result="effect1_foregroundBlur_5812_436"/>
</filter>
<filter id="filter8_f_5812_436" x="1290.94" y="1555.23" width="1379.21" height="802.087" filterUnits="userSpaceOnUse" color-interpolation-filters="sRGB">
<feFlood flood-opacity="0" result="BackgroundImageFix"/>
<feBlend mode="normal" in="SourceGraphic" in2="BackgroundImageFix" result="shape"/>
<feGaussianBlur stdDeviation="55.45" result="effect1_foregroundBlur_5812_436"/>
</filter>
<linearGradient id="paint0_linear_5812_436" x1="504.873" y1="265.499" x2="806.195" y2="264.797" gradientUnits="userSpaceOnUse">
<stop stop-color="#21BBEC"/>
<stop offset="1" stop-color="#168BD8"/>
</linearGradient>
<linearGradient id="paint1_linear_5812_436" x1="1443.87" y1="846.758" x2="1745.19" y2="846.056" gradientUnits="userSpaceOnUse">
<stop stop-color="#21BBEC"/>
<stop offset="1" stop-color="#168BD8"/>
</linearGradient>
<linearGradient id="paint2_linear_5812_436" x1="376.49" y1="729.679" x2="109.769" y2="582.941" gradientUnits="userSpaceOnUse">
<stop stop-color="#21BBEC"/>
<stop offset="1" stop-color="#168BD8"/>
</linearGradient>
<linearGradient id="paint3_linear_5812_436" x1="-422.522" y1="1626.36" x2="522.076" y2="2146.04" gradientUnits="userSpaceOnUse">
<stop stop-color="#21BBEC"/>
<stop offset="1" stop-color="#168BD8"/>
</linearGradient>
<linearGradient id="paint4_linear_5812_436" x1="1517.48" y1="1673.32" x2="2462.08" y2="2193" gradientUnits="userSpaceOnUse">
<stop stop-color="#21BBEC"/>
<stop offset="1" stop-color="#168BD8"/>
</linearGradient>
</defs>
</svg>
