<svg width="124" height="84" viewBox="0 0 124 84" fill="none" xmlns="http://www.w3.org/2000/svg">
<g clip-path="url(#clip0_5668_31)">
<path d="M52.1901 60.7134H50.1808C50.0555 60.3339 49.9817 59.5711 49.9412 58.4214C49.1227 59.7001 47.5484 60.964 44.4626 60.964C39.3122 60.964 36.5508 57.0616 36.5508 51.9875C36.5508 46.6443 39.515 42.6277 44.9419 42.6277C49.1706 42.6277 51.7956 44.9345 52.2896 48.0962H49.6425C49.0821 46.2537 47.7402 44.7981 44.8903 44.7981C40.8385 44.7981 39.3122 48.0556 39.3122 51.8622C39.3122 55.4218 40.8827 58.7678 44.8165 58.7678C48.6803 58.7678 49.602 56.1809 49.602 53.4393V53.2588H44.7944V51.0183H52.1901V60.7134Z" fill="#384EA0"/>
<path d="M53.9688 60.7134V41.8906H56.4905V60.7134H53.9688Z" fill="#384EA0"/>
<path d="M69.724 54.1541C69.724 57.9569 67.5267 61.0228 63.5007 61.0228C59.696 61.0228 57.4102 58.1264 57.4102 54.2056C57.4102 50.3143 59.6738 47.3406 63.6519 47.3406C67.3239 47.3369 69.724 50.0527 69.724 54.1541ZM59.9946 54.1798C59.9946 56.9767 61.3587 58.9519 63.5892 58.9519C65.8603 58.9519 67.1359 57.0652 67.1359 54.1909C67.1359 51.2908 65.8639 49.4078 63.5376 49.4078C61.2407 49.4078 59.9946 51.2393 59.9946 54.1798Z" fill="#384EA0"/>
<path d="M70.6352 41.887H73.1569V49.4153C73.7395 48.3541 74.9155 47.337 77.2456 47.337C80.5784 47.337 82.5914 50.0823 82.5914 53.9183C82.5914 57.8465 80.6116 61.0192 76.899 61.0192C74.8344 61.0192 73.7874 60.2859 73.1348 59.0809C73.1348 59.7037 73.0869 60.3633 73.0353 60.7134H70.6094C70.6352 59.2615 70.6352 57.7986 70.6352 56.3467V41.887ZM80.0033 53.9699C80.0033 51.2762 78.8088 49.4411 76.6004 49.4411C73.9607 49.4411 73.0316 51.2025 73.0316 54.2279C73.0316 56.8479 73.8574 58.9262 76.5045 58.9262C78.724 58.9262 80.0033 57.0174 80.0033 53.9699Z" fill="#384EA0"/>
<path d="M93.4225 57.7617C93.4225 58.9593 93.5257 60.3485 93.6031 60.7133H91.192C91.0888 60.4296 91.0113 59.7921 90.9855 59.0883C90.5247 59.9321 89.5108 61.0229 87.0185 61.0229C83.9216 61.0229 82.6055 59.0035 82.6055 57.01C82.6055 54.0804 84.9171 52.7391 88.7919 52.7391C89.6472 52.7391 90.4731 52.7391 90.9523 52.7391V51.6852C90.9523 50.576 90.591 49.2642 88.2942 49.2642C86.2369 49.2642 85.8756 50.2628 85.6508 51.2688H83.2249C83.4018 49.3674 84.5779 47.3259 88.379 47.337C91.6344 47.348 93.4299 48.6635 93.4299 51.6594V57.7617H93.4225ZM90.9597 54.4231C90.5652 54.4231 89.6288 54.4231 88.9689 54.4231C86.4434 54.4231 85.1641 55.1343 85.1641 56.8626C85.1641 58.1412 86.0268 59.092 87.5789 59.092C90.5615 59.092 90.9597 57.0726 90.9597 54.8248V54.4231Z" fill="#384EA0"/>
<path d="M95.5703 42.8855H107.217V45.1259H98.1695V50.6423H106.649V52.8828H98.1695V60.7133H95.5703V42.8855Z" fill="#76BF43"/>
<path d="M107.816 41.887H110.338V44.7833H107.816V41.887ZM107.816 47.6465H110.338V60.7134H107.816V47.6465Z" fill="#76BF43"/>
<path d="M112.166 50.9371C112.166 49.8095 112.166 48.6488 112.141 47.6428H114.589C114.651 48.0187 114.688 49.301 114.688 49.6953C115.193 48.6304 116.259 47.3333 118.74 47.3333C121.225 47.3333 123.101 48.8846 123.101 52.3227V60.7096H120.58V52.6322C120.58 50.7566 119.864 49.4779 117.944 49.4779C115.658 49.4779 114.688 51.1545 114.688 53.7193V60.7096H112.166V50.9371Z" fill="#76BF43"/>
<path d="M54.793 67.2765C54.793 66.2374 54.8041 65.1798 54.8262 64.5902H54.7967C54.5571 65.4967 53.6501 67.8993 53.0086 69.6607H52.3413C51.8547 68.2272 50.9182 65.5335 50.6675 64.5791H50.6417C50.686 65.224 50.7044 66.4695 50.7044 67.4276V69.6607H50.0039V64.0632H51.1136C51.7478 65.7988 52.5257 68.043 52.7174 68.7542H52.7321C52.8648 68.2162 53.7829 65.7546 54.4391 64.0632H55.5156V69.6607H54.7893V67.2765H54.793Z" fill="#384EA0"/>
<path d="M58.991 64.0632V69.6607H58.25V64.0632H58.991Z" fill="#384EA0"/>
<path d="M66.1004 68.0759C65.8533 69.0266 65.1418 69.7341 63.8735 69.7341C62.1997 69.7341 61.3555 68.4628 61.3555 66.882C61.3555 65.3601 62.1997 63.9856 63.903 63.9856C65.2229 63.9856 65.9418 64.7373 66.104 65.6733H65.363C65.1639 65.0653 64.7584 64.6047 63.8735 64.6047C62.6385 64.6047 62.1334 65.7286 62.1334 66.8599C62.1334 67.958 62.6127 69.115 63.9067 69.115C64.7694 69.115 65.1492 68.6213 65.3593 68.0759H66.1004Z" fill="#384EA0"/>
<path d="M69.1436 67.1954V69.6607H68.4062V64.0632H70.5962C71.7465 64.0632 72.3622 64.686 72.3622 65.5593C72.3622 66.2853 71.9456 66.7274 71.4073 66.8748C71.8644 66.9965 72.2626 67.3392 72.2626 68.312V68.5515C72.2626 68.9384 72.2442 69.4248 72.34 69.6607H71.6174C71.5142 69.4175 71.5216 68.9826 71.5216 68.4557V68.3378C71.5216 67.5418 71.2967 67.1954 70.2902 67.1954H69.1436ZM69.1436 66.5727H70.3602C71.2156 66.5727 71.5916 66.2521 71.5916 65.622C71.5916 65.0287 71.2045 64.6897 70.4414 64.6897H69.1399V66.5727H69.1436Z" fill="#384EA0"/>
<path d="M79.6866 66.8304C79.6866 68.3707 78.8239 69.7415 77.058 69.7415C75.41 69.7415 74.4883 68.4665 74.4883 66.8636C74.4883 65.2606 75.4284 63.9856 77.1206 63.9856C78.6986 63.9819 79.6866 65.1648 79.6866 66.8304ZM75.2662 66.8378C75.2662 68.0464 75.8856 69.1077 77.0912 69.1077C78.3926 69.1077 78.9087 68.0354 78.9087 66.8414C78.9087 65.6365 78.3225 64.6157 77.0912 64.6157C75.8229 64.6157 75.2662 65.6438 75.2662 66.8378Z" fill="#384EA0"/>
<path d="M82.0508 64.0632H85.6491V64.7007H82.7808V66.5174H85.4684V67.1549H82.7808V69.6644H82.0508V64.0632Z" fill="#384EA0"/>
<path d="M88.5496 64.0632V69.6607H87.8086V64.0632H88.5496Z" fill="#384EA0"/>
<path d="M91.2812 69.6607V64.0632H92.2656C93.0693 65.3714 94.8169 68.1572 95.1302 68.7652H95.1413C95.086 68.0467 95.0934 67.1623 95.0934 66.2484V64.0632H95.7939V69.6607H94.8722C94.1311 68.4446 92.3099 65.4488 91.9596 64.8223H91.9486C91.9891 65.4598 91.9891 66.4105 91.9891 67.4202V69.6607H91.2812Z" fill="#384EA0"/>
<path d="M99.2602 67.984L98.6592 69.6643H97.9219L99.9164 64.0669H100.831L102.91 69.6643H102.117L101.494 67.984H99.2602ZM101.303 67.3465C100.768 65.8762 100.477 65.095 100.355 64.6675H100.348C100.211 65.1429 99.8832 66.0899 99.4519 67.3465H101.303Z" fill="#384EA0"/>
<path d="M104.996 69.6607V64.0632H105.98C106.784 65.3714 108.532 68.1572 108.845 68.7652H108.856C108.801 68.0467 108.808 67.1623 108.808 66.2484V64.0632H109.509V69.6607H108.587C107.846 68.4446 106.025 65.4488 105.674 64.8223H105.663C105.704 65.4598 105.704 66.4105 105.704 67.4202V69.6607H104.996Z" fill="#384EA0"/>
<path d="M116.632 68.0759C116.385 69.0266 115.673 69.7341 114.405 69.7341C112.731 69.7341 111.887 68.4628 111.887 66.882C111.887 65.3601 112.731 63.9856 114.434 63.9856C115.754 63.9856 116.473 64.7373 116.635 65.6733H115.894C115.695 65.0653 115.29 64.6047 114.405 64.6047C113.17 64.6047 112.665 65.7286 112.665 66.8599C112.665 67.958 113.144 69.115 114.438 69.115C115.301 69.115 115.68 68.6213 115.891 68.0759H116.632Z" fill="#384EA0"/>
<path d="M122.451 67.0443H119.664V69.0268H122.724L122.628 69.6643H118.938V64.0669H122.584V64.7044H119.664V66.4142H122.451V67.0443Z" fill="#384EA0"/>
<path d="M43.4409 8.01846C45.6562 8.01846 47.4521 6.22346 47.4521 4.00923C47.4521 1.79499 45.6562 0 43.4409 0C41.2256 0 39.4297 1.79499 39.4297 4.00923C39.4297 6.22346 41.2256 8.01846 43.4409 8.01846Z" fill="#374EA0"/>
<path d="M32.751 9.99706C35.1333 9.99706 37.0646 8.06678 37.0646 5.68566C37.0646 3.30454 35.1333 1.37427 32.751 1.37427C30.3687 1.37427 28.4375 3.30454 28.4375 5.68566C28.4375 8.06678 30.3687 9.99706 32.751 9.99706Z" fill="#374EA0"/>
<path d="M39.0649 18.9183C41.0725 18.9183 42.7 17.2916 42.7 15.285C42.7 13.2783 41.0725 11.6516 39.0649 11.6516C37.0572 11.6516 35.4297 13.2783 35.4297 15.285C35.4297 17.2916 37.0572 18.9183 39.0649 18.9183Z" fill="#76BF43"/>
<path d="M38.6586 29.1185C40.6662 29.1185 42.2938 27.4918 42.2938 25.4852C42.2938 23.4785 40.6662 21.8518 38.6586 21.8518C36.651 21.8518 35.0234 23.4785 35.0234 25.4852C35.0234 27.4918 36.651 29.1185 38.6586 29.1185Z" fill="#374EA0"/>
<path d="M30.0936 24.3207C32.2335 24.3207 33.9684 22.5868 33.9684 20.4478C33.9684 18.3089 32.2335 16.575 30.0936 16.575C27.9536 16.575 26.2188 18.3089 26.2188 20.4478C26.2188 22.5868 27.9536 24.3207 30.0936 24.3207Z" fill="#76BF43"/>
<path d="M22.3415 30.3933C24.5731 30.3933 26.3822 28.5851 26.3822 26.3546C26.3822 24.1241 24.5731 22.3159 22.3415 22.3159C20.1099 22.3159 18.3008 24.1241 18.3008 26.3546C18.3008 28.5851 20.1099 30.3933 22.3415 30.3933Z" fill="#76BF43"/>
<path d="M16.4246 37.5644C18.5015 37.5644 20.1851 35.8816 20.1851 33.8058C20.1851 31.7299 18.5015 30.0471 16.4246 30.0471C14.3477 30.0471 12.6641 31.7299 12.6641 33.8058C12.6641 35.8816 14.3477 37.5644 16.4246 37.5644Z" fill="#76BF43"/>
<path d="M12.4609 46.3492C14.4543 46.3492 16.0703 44.734 16.0703 42.7416C16.0703 40.7492 14.4543 39.134 12.4609 39.134C10.4675 39.134 8.85156 40.7492 8.85156 42.7416C8.85156 44.734 10.4675 46.3492 12.4609 46.3492Z" fill="#76BF43"/>
<path d="M31.3504 33.4594C32.6658 33.4594 33.7321 32.3937 33.7321 31.079C33.7321 29.7643 32.6658 28.6985 31.3504 28.6985C30.0351 28.6985 28.9688 29.7643 28.9688 31.079C28.9688 32.3937 30.0351 33.4594 31.3504 33.4594Z" fill="#374EA0"/>
<path d="M26.252 39.6058C27.7914 39.6058 29.0393 38.3586 29.0393 36.82C29.0393 35.2814 27.7914 34.0342 26.252 34.0342C24.7127 34.0342 23.4648 35.2814 23.4648 36.82C23.4648 38.3586 24.7127 39.6058 26.252 39.6058Z" fill="#374EA0"/>
<path d="M22.8916 46.6183C24.5857 46.6183 25.959 45.2457 25.959 43.5525C25.959 41.8592 24.5857 40.4866 22.8916 40.4866C21.1975 40.4866 19.8242 41.8592 19.8242 43.5525C19.8242 45.2457 21.1975 46.6183 22.8916 46.6183Z" fill="#374EA0"/>
<path d="M21.4677 54.4156C23.2534 54.4156 24.701 52.9687 24.701 51.1838C24.701 49.399 23.2534 47.9521 21.4677 47.9521C19.682 47.9521 18.2344 49.399 18.2344 51.1838C18.2344 52.9687 19.682 54.4156 21.4677 54.4156Z" fill="#374EA0"/>
<path d="M11.5968 55.2301C13.2359 55.2301 14.5646 53.902 14.5646 52.2638C14.5646 50.6255 13.2359 49.2974 11.5968 49.2974C9.95766 49.2974 8.62891 50.6255 8.62891 52.2638C8.62891 53.902 9.95766 55.2301 11.5968 55.2301Z" fill="#76BF43"/>
<path d="M12.9033 64.6675C14.4162 64.6675 15.6426 63.4417 15.6426 61.9296C15.6426 60.4175 14.4162 59.1917 12.9033 59.1917C11.3905 59.1917 10.1641 60.4175 10.1641 61.9296C10.1641 63.4417 11.3905 64.6675 12.9033 64.6675Z" fill="#76BF43"/>
<path d="M22.0175 61.7155C23.6668 61.7155 25.0038 60.3791 25.0038 58.7307C25.0038 57.0822 23.6668 55.7458 22.0175 55.7458C20.3683 55.7458 19.0312 57.0822 19.0312 58.7307C19.0312 60.3791 20.3683 61.7155 22.0175 61.7155Z" fill="#374EA0"/>
<path d="M24.2145 68.9381C25.7762 68.9381 27.0422 67.6727 27.0422 66.1118C27.0422 64.5508 25.7762 63.2854 24.2145 63.2854C22.6527 63.2854 21.3867 64.5508 21.3867 66.1118C21.3867 67.6727 22.6527 68.9381 24.2145 68.9381Z" fill="#374EA0"/>
<path d="M28.7059 74.5394C29.9846 74.5394 31.0212 73.5034 31.0212 72.2253C31.0212 70.9472 29.9846 69.9111 28.7059 69.9111C27.4272 69.9111 26.3906 70.9472 26.3906 72.2253C26.3906 73.5034 27.4272 74.5394 28.7059 74.5394Z" fill="#374EA0"/>
<path d="M34.5279 79.2891C35.6824 79.2891 36.6183 78.3536 36.6183 77.1997C36.6183 76.0458 35.6824 75.1104 34.5279 75.1104C33.3734 75.1104 32.4375 76.0458 32.4375 77.1997C32.4375 78.3536 33.3734 79.2891 34.5279 79.2891Z" fill="#374EA0"/>
<path d="M41.2421 82.4768C42.2215 82.4768 43.0154 81.6832 43.0154 80.7043C43.0154 79.7254 42.2215 78.9319 41.2421 78.9319C40.2627 78.9319 39.4688 79.7254 39.4688 80.7043C39.4688 81.6832 40.2627 82.4768 41.2421 82.4768Z" fill="#374EA0"/>
<path d="M49.0219 83.1804C49.761 83.1804 50.3602 82.5815 50.3602 81.8428C50.3602 81.104 49.761 80.5051 49.0219 80.5051C48.2828 80.5051 47.6836 81.104 47.6836 81.8428C47.6836 82.5815 48.2828 83.1804 49.0219 83.1804Z" fill="#374EA0"/>
<path d="M22.8347 14.6513C25.3106 14.6513 27.3178 12.6451 27.3178 10.1704C27.3178 7.69562 25.3106 5.68945 22.8347 5.68945C20.3587 5.68945 18.3516 7.69562 18.3516 10.1704C18.3516 12.6451 20.3587 14.6513 22.8347 14.6513Z" fill="#374EA0"/>
<path d="M14.3637 20.9192C16.7155 20.9192 18.6219 19.0137 18.6219 16.6631C18.6219 14.3125 16.7155 12.407 14.3637 12.407C12.0119 12.407 10.1055 14.3125 10.1055 16.6631C10.1055 19.0137 12.0119 20.9192 14.3637 20.9192Z" fill="#374EA0"/>
<path d="M7.62384 29.5052C9.84528 29.5052 11.6461 27.7052 11.6461 25.4849C11.6461 23.2645 9.84528 21.4646 7.62384 21.4646C5.4024 21.4646 3.60156 23.2645 3.60156 25.4849C3.60156 27.7052 5.4024 29.5052 7.62384 29.5052Z" fill="#374EA0"/>
<path d="M4.07692 38.9722C5.97258 38.9722 7.50932 37.4362 7.50932 35.5415C7.50932 33.6468 5.97258 32.1108 4.07692 32.1108C2.18127 32.1108 0.644531 33.6468 0.644531 35.5415C0.644531 37.4362 2.18127 38.9722 4.07692 38.9722Z" fill="#374EA0"/>
<path d="M3.12639 49.4484C4.85305 49.4484 6.25278 48.0494 6.25278 46.3236C6.25278 44.5978 4.85305 43.1987 3.12639 43.1987C1.39973 43.1987 0 44.5978 0 46.3236C0 48.0494 1.39973 49.4484 3.12639 49.4484Z" fill="#374EA0"/>
<path d="M4.33878 59.685C5.76205 59.685 6.91584 58.5318 6.91584 57.1092C6.91584 55.6867 5.76205 54.5334 4.33878 54.5334C2.91551 54.5334 1.76172 55.6867 1.76172 57.1092C1.76172 58.5318 2.91551 59.685 4.33878 59.685Z" fill="#374EA0"/>
<path d="M9.37328 69.0488C10.4402 69.0488 11.3052 68.1843 11.3052 67.1179C11.3052 66.0515 10.4402 65.187 9.37328 65.187C8.30633 65.187 7.44141 66.0515 7.44141 67.1179C7.44141 68.1843 8.30633 69.0488 9.37328 69.0488Z" fill="#374EA0"/>
<path d="M16.4099 73.1315C17.6805 73.1315 18.7105 72.1021 18.7105 70.8321C18.7105 69.5622 17.6805 68.5327 16.4099 68.5327C15.1394 68.5327 14.1094 69.5622 14.1094 70.8321C14.1094 72.1021 15.1394 73.1315 16.4099 73.1315Z" fill="#76BF43"/>
<path d="M22.6784 80.004C23.5967 80.004 24.3411 79.2599 24.3411 78.3421C24.3411 77.4242 23.5967 76.6802 22.6784 76.6802C21.7601 76.6802 21.0156 77.4242 21.0156 78.3421C21.0156 79.2599 21.7601 80.004 22.6784 80.004Z" fill="#76BF43"/>
</g>
<defs>
<clipPath id="clip0_5668_31">
<rect width="123.102" height="83.1767" fill="white"/>
</clipPath>
</defs>
</svg>
