<svg width="143" height="53" viewBox="0 0 143 53" fill="none" xmlns="http://www.w3.org/2000/svg">
<g clip-path="url(#clip0_5649_9961)">
<path d="M17.534 0.440674C18.5055 0.603545 19.477 0.77293 20.4247 1.08238C20.7507 1.18498 21.0567 1.34329 21.3292 1.55037C22.6008 2.52759 23.882 3.49396 25.1589 4.46467C25.4979 4.722 25.5141 4.79041 25.214 5.09009C24.4692 5.84147 23.5387 6.31488 22.6234 6.81001C22.451 6.894 22.2856 6.99205 22.1291 7.10317C23.2398 6.76006 24.3321 6.35831 25.2582 5.65254C26.5654 4.65794 27.9988 4.05966 29.6395 3.98366C31.1615 3.91308 32.3132 4.61017 33.2533 5.74809C33.5299 6.06094 33.768 6.40618 33.9625 6.77635C34.6382 8.17378 35.7878 9.12169 36.9848 10.0338C36.5477 9.47349 36.1062 8.91647 35.7176 8.32036C35.5104 8.00113 35.3064 7.6801 35.1056 7.35725C35.056 7.27799 34.9577 7.19221 35.0257 7.09557C35.0786 7.02282 35.1876 7.05974 35.2697 7.07603C36.702 7.36377 38.1333 7.30513 39.5635 7.063C39.8395 7.01084 40.1117 6.94048 40.3785 6.85235C41.4233 6.52661 42.4671 6.50381 43.5087 6.89036C43.9363 7.04127 44.3262 7.28353 44.6518 7.60047C47.4583 10.3888 49.9765 13.3998 51.6345 17.047C52.3706 18.6659 52.9189 20.3435 52.8963 22.1568C52.9059 22.5024 52.8318 22.8453 52.6804 23.1557C52.4645 23.564 52.1817 23.653 51.7672 23.4619C51.6253 23.3899 51.4789 23.3272 51.329 23.2741C50.7634 23.0982 50.4655 23.2252 50.1891 23.7573C49.5538 24.9984 48.6249 26.0633 47.4842 26.8583C46.2871 27.6879 44.9562 28.0451 43.5141 28.0581C42.8889 28.0651 42.2768 28.2394 41.7407 28.563C39.5527 29.828 37.2622 30.0929 34.8865 29.0929C34.4774 28.9213 34.1924 28.714 34.1935 28.1917C34.1935 27.7574 34.186 27.335 34.2259 26.9061C34.2354 26.8403 34.2599 26.7776 34.2973 26.7228C34.3347 26.6681 34.3841 26.6227 34.4418 26.5901C35.0354 26.1558 35.2135 25.5781 35.043 24.8691C34.9317 24.4016 34.7399 23.9573 34.4763 23.5564C34.3198 23.3197 34.3684 23.2013 34.5929 23.0613C35.0486 22.7714 35.4556 22.4103 35.7986 21.9917C36.5757 21.0558 36.6783 19.9037 36.0598 18.8429C36.2584 20.7235 35.2438 21.8897 33.8308 22.7985C33.4865 23.0156 33.507 23.1514 33.7283 23.4261C33.9699 23.7225 34.1418 24.0699 34.2313 24.4424C34.3198 24.8105 34.363 25.2025 34.1093 25.5032C33.8028 25.867 33.7855 26.2904 33.7628 26.7117C33.6786 28.6553 33.82 30.5902 34.0219 32.523C34.1579 33.8172 34.2766 35.1137 34.4018 36.4091C34.4055 36.4452 34.4055 36.4815 34.4018 36.5176C34.3792 36.7207 34.418 36.9813 34.186 37.0605C33.9539 37.1398 33.7974 36.9433 33.6668 36.7869C33.0601 36.0573 32.7363 35.1777 32.3909 34.3102C32.3078 34.0669 32.1993 33.8333 32.0671 33.6131C31.93 34.2114 31.7541 34.8075 31.6634 35.4101C31.2608 38.1018 30.6002 40.7306 29.8662 43.3463C29.3481 45.1921 28.8051 47.0315 27.8952 48.7329C27.3059 49.8339 26.6258 50.8655 25.6285 51.6375C24.358 52.6147 22.9731 52.8319 21.489 52.2075C19.8904 51.5408 18.8811 50.3758 18.6199 48.6244C18.4418 47.43 18.6469 46.2834 19.1445 45.1791C19.5018 44.3843 19.8342 43.5754 19.8019 42.6698C19.7943 42.4744 19.8353 42.2225 20.0728 42.2105C20.2106 42.2038 20.3461 42.2477 20.4541 42.3339C20.5621 42.4202 20.6353 42.5431 20.66 42.6796C20.7355 43.179 21.0453 43.3723 21.4577 43.5341C22.0103 43.7513 22.1139 44.203 21.7027 44.634C20.7496 45.6319 20.9223 46.7893 21.2591 47.9381C21.4274 48.5136 21.9261 48.6982 22.536 48.5701C23.229 48.4224 23.6694 47.9685 23.9705 47.3583C24.3407 46.6091 24.4843 45.8002 24.5555 44.975C24.779 42.4016 24.4066 39.8825 23.9079 37.3678C23.5215 35.4134 23.2085 33.4524 22.863 31.4936C22.8512 31.4241 22.863 31.3459 22.7735 31.2765C22.7357 32.0865 22.8166 32.8748 22.8684 33.6652C22.9127 34.3384 22.9969 35.0084 23.0541 35.6816C23.0681 35.839 23.0671 36.0203 22.8868 36.0931C22.7065 36.1658 22.5867 36.0334 22.4691 35.928C22.3404 35.7959 22.2378 35.6404 22.1668 35.4698C21.2731 33.7087 20.7928 31.8226 20.5218 29.8758C20.3528 28.6955 20.2806 27.5032 20.3059 26.3111C20.3286 25.3447 20.4657 24.399 20.9795 23.5531C21.0745 23.3968 21.0464 23.3012 20.9007 23.2274C20.2876 22.9114 20.3675 22.3587 20.6578 21.8745C20.8751 21.5319 21.1356 21.2191 21.4328 20.9439C21.5321 20.8462 21.6207 20.7268 21.4015 20.6996C20.9244 20.6312 20.6654 20.2827 20.415 19.9396C19.5514 18.7452 19.5104 17.4324 19.8666 16.0665C19.9913 15.5791 20.1661 15.106 20.388 14.6549C20.8197 13.7776 20.4441 12.5811 19.586 12.1098C19.1529 11.8774 18.6596 11.7834 18.172 11.8405C18.172 11.9643 18.2799 11.9491 18.3317 11.9741C19.5266 12.5105 19.8807 13.4084 19.3345 14.6137C19.1186 15.0958 18.9027 15.567 18.8282 16.1023C18.6437 17.4368 18.7117 18.7245 19.409 19.9211C19.6298 20.2906 19.9125 20.619 20.2444 20.8918C20.5974 21.1915 20.5995 21.1904 20.2725 21.4955C19.926 21.8213 19.7004 22.1904 19.7328 22.6899C19.7503 22.974 19.8543 23.2458 20.0307 23.4684C20.0935 23.542 20.1365 23.6306 20.1554 23.7257C20.1743 23.8207 20.1685 23.9191 20.1386 24.0113C20.0383 24.353 19.9618 24.7013 19.9098 25.0537C19.8645 25.4088 19.6745 25.5217 19.3485 25.5445C18.3196 25.6157 17.2896 25.4225 16.3553 24.9831C14.821 24.2672 13.4477 23.2442 12.3195 21.9765C10.8299 20.3049 8.99181 18.9847 6.9365 18.11C4.99358 17.288 3.10894 16.3575 1.44451 15.0339C0.932618 14.6521 0.505754 14.1669 0.191325 13.6093C-0.161639 12.9426 -0.0310311 12.4258 0.623085 12.0555C1.23266 11.7137 1.78998 11.285 2.27781 10.783C2.52499 10.5289 2.66855 10.29 2.68042 9.89695C2.729 8.3323 3.49861 7.1162 4.74963 6.26059C6.73897 4.89899 8.77903 3.61231 10.8029 2.30174C11.5196 1.83702 12.1781 1.28 12.9909 0.966204C13.6385 0.71864 14.3034 0.590515 14.9683 0.440674H17.534ZM30.9121 25.7497C29.0361 24.4272 26.4456 24.5455 24.901 25.4142C26.8985 24.9842 28.9741 25.1001 30.9121 25.7497ZM30.6067 29.1374C28.8203 27.8247 26.3506 27.9213 24.9344 28.6857C26.8827 28.3383 28.7652 28.462 30.6067 29.1374ZM25.0888 31.9062C26.8674 31.6199 28.6883 31.7659 30.3994 32.3319C28.7048 31.2428 26.927 31.1939 25.0888 31.9062ZM33.6711 18.9645C33.5323 18.9535 33.3929 18.975 33.2637 19.0271C33.1345 19.0793 33.019 19.1608 32.9263 19.2653C32.8302 19.3739 32.7989 19.4998 32.9867 19.5356C33.3008 19.5943 33.5264 19.7962 33.7887 19.958C33.9498 20.0723 34.1433 20.131 34.3403 20.1252C34.5206 20.1133 34.5983 20.0167 34.5918 19.8375C34.5734 19.603 34.4689 19.3838 34.2988 19.2224C34.1286 19.0611 33.9049 18.9692 33.6711 18.9645ZM21.2774 17.9873C21.4591 17.9738 21.6371 17.9282 21.8031 17.8526C22.0751 17.7506 22.3007 17.5388 22.5964 17.4954C22.8674 17.4552 22.8123 17.3391 22.6806 17.1903C22.4647 16.9449 21.9574 16.7799 21.6822 16.8884C21.299 17.0405 21.1025 17.3586 21.014 17.7441C20.9676 17.946 21.109 17.9905 21.2774 17.984V17.9873ZM25.4547 35.9465C26.8827 35.8021 28.2903 35.8748 29.6643 36.3113C28.3227 35.4742 26.9119 35.4134 25.4547 35.9465ZM25.9059 39.5145C26.8842 39.5137 27.8557 39.6773 28.7803 39.9987C27.8995 39.3744 26.927 39.3016 25.9059 39.5145Z" fill="#0D0D0D"/>
<path d="M17.6402 43.0671C17.4719 43.5546 17.3024 44.0139 17.0142 44.4168C16.7336 44.8426 16.3085 45.151 15.8182 45.2843C15.7006 45.3137 15.5678 45.3658 15.4685 45.2767C15.353 45.1736 15.4501 45.0433 15.4879 44.9358C15.9906 43.5364 16.3375 42.0852 16.522 40.6089C16.7821 38.3721 16.6472 36.1907 15.5387 34.1624C15.5041 34.0995 15.4642 34.0387 15.4048 33.9453C15.3282 34.0853 15.3908 34.182 15.4145 34.271C15.9736 36.4426 15.9143 38.5773 15.0378 40.6621C14.7531 41.3565 14.3703 42.006 13.9012 42.5905C13.83 42.6773 13.7706 42.8402 13.626 42.7794C13.5115 42.7305 13.5612 42.5807 13.5623 42.4754C13.5538 41.8121 13.4899 41.1506 13.3712 40.4981C13.2802 39.875 13.1142 39.2654 12.8769 38.6826C12.9071 39.1908 12.9567 39.7 12.9664 40.2093C12.9869 41.319 12.9384 42.4222 12.4602 43.4537C12.3623 43.6802 12.2141 43.8811 12.027 44.0411C11.8399 44.2011 11.6188 44.3159 11.3808 44.3766C11.044 44.4711 10.8411 44.369 10.6954 44.0737C10.5483 43.7615 10.4724 43.4202 10.473 43.0747C10.473 42.8087 10.473 42.5427 10.473 42.2061C10.2396 42.5161 10.034 42.8464 9.85885 43.1931C9.7984 43.3017 9.78221 43.496 9.62354 43.4776C9.48214 43.4613 9.46595 43.2767 9.40766 43.1605C9.26535 42.8596 9.1916 42.5306 9.19178 42.1974C9.10327 40.3982 9.29432 38.6609 10.146 37.0431C10.2938 36.7662 10.4698 36.5002 10.609 36.2179C8.98993 37.0789 8.04762 38.4307 7.74322 40.2571C7.02542 36.7564 7.99904 33.7031 10.1622 30.8681C9.09371 31.1896 8.07823 31.6677 7.14847 32.2872C6.22019 32.9051 5.44194 33.6716 4.88173 34.7575C4.68852 34.2786 4.65182 33.8541 4.57734 33.4425C4.11536 30.8876 3.77751 28.3186 3.88545 25.7149C3.94913 24.1861 4.15098 22.6746 4.87634 21.2935C5.26708 20.5475 5.79275 19.9319 6.58287 19.5866C6.76871 19.4944 6.97429 19.4497 7.18141 19.4565C7.38852 19.4633 7.59076 19.5214 7.77021 19.6257C9.10759 20.3608 10.2334 21.3478 11.234 22.4922C12.4494 23.882 13.8472 25.0384 15.5203 25.8321C16.7573 26.4185 18.0461 26.7464 19.4256 26.5596C19.7213 26.5195 19.7418 26.6997 19.7494 26.9158C19.7717 28.1936 19.8716 29.4689 20.0484 30.7345C20.2643 32.2992 20.6086 33.8291 21.3685 35.2341C21.5577 35.6071 21.7967 35.9523 22.0787 36.2602C22.2331 36.4198 22.4026 36.6066 22.6184 36.6164C22.9757 36.6305 23.0502 36.8335 23.1063 37.1256C23.4863 39.08 23.8695 41.0345 23.8954 43.0302C23.9165 43.8662 23.8401 44.7019 23.6676 45.52C23.6201 45.7371 23.5262 45.8392 23.2995 45.8338C22.8958 45.8251 22.4932 45.8272 22.0895 45.8338C21.8078 45.8338 21.7873 45.6959 21.8737 45.4787C21.9327 45.3028 22.0462 45.1506 22.1975 45.0444C22.8397 44.6339 22.8732 43.7414 21.8737 43.3559C21.4257 43.1855 21.1181 42.9661 21.0997 42.4602C21.0984 42.4479 21.0955 42.4358 21.0911 42.4243C20.9562 42.0074 20.2438 41.7229 19.6652 41.8554C19.3295 41.9325 19.0532 42.4124 19.1255 42.8326C19.3025 43.9184 18.8082 44.8185 18.3257 45.7176C18.2307 45.8946 17.6402 45.9716 17.4805 45.8544C17.338 45.7458 17.4373 45.6264 17.4675 45.521C17.6475 44.8947 17.7376 44.2457 17.7352 43.5937C17.7407 43.4134 17.7083 43.234 17.6402 43.0671Z" fill="#0D0D0D"/>
<path d="M38.768 42.7305C38.6795 40.776 37.6735 39.4014 36.1116 38.3623C36.6446 39.3377 36.9346 40.4286 36.9568 41.5415C36.9807 42.6819 36.7831 43.8161 36.375 44.8804C36.0609 44.3983 35.8828 43.9401 35.5277 43.5046C35.4953 43.9846 35.5978 44.3939 35.5223 44.8076C35.4564 45.1627 35.4467 45.5568 35.0517 45.6947C34.594 45.8554 34.1277 45.8315 33.7564 45.4656C33.1573 44.8825 33.0828 44.1029 32.9835 43.332C32.8756 42.5122 32.9706 41.6924 32.9706 40.8672C32.7396 41.2744 32.6414 41.725 32.5162 42.1648C32.227 43.2067 32.0572 44.2785 32.0099 45.3592C31.997 45.6133 31.916 45.711 31.6634 45.6991C31.3094 45.6828 30.9543 45.6741 30.6002 45.6904C30.2699 45.7056 30.2019 45.5818 30.2926 45.2756C30.7405 43.7424 31.0892 42.1843 31.3936 40.6164C31.7055 39.0127 31.9743 37.4024 32.1826 35.7824C32.1923 35.6999 32.1826 35.6065 32.2841 35.5544C32.4384 35.6174 32.4471 35.7813 32.5075 35.9062C32.8411 36.5924 33.18 37.2743 33.7391 37.8118C33.8416 37.917 33.96 38.0054 34.0899 38.0734C34.444 38.2439 34.6631 38.1147 34.7376 37.7151C34.8736 37.03 34.8304 36.3427 34.7224 35.6619C34.5681 34.6847 34.5303 33.7074 34.4623 32.7302C34.4008 31.8366 34.3943 30.9375 34.3706 30.0417C34.3706 29.8908 34.3468 29.6509 34.6134 29.8452C35.7921 30.7052 37.1317 30.8583 38.5252 30.7334C38.835 30.7063 38.9235 30.7931 38.9699 31.0874C39.386 33.671 39.5504 36.2894 39.461 38.9052C39.4279 40.1222 39.2617 41.3318 38.9656 42.5122C38.9515 42.5806 38.9537 42.6621 38.768 42.7305Z" fill="#0D0D0D"/>
<path d="M142.372 28.876C142.226 28.876 142.078 28.8857 141.931 28.8857H64.3749C64.2918 28.8857 64.2087 28.8803 64.1266 28.8857C63.9216 28.8999 63.8514 28.8021 63.8536 28.6034C63.8557 28.4047 63.9475 28.3417 64.1277 28.3537C64.2184 28.3602 64.3112 28.3537 64.403 28.3537H141.874C142.039 28.3537 142.204 28.3656 142.369 28.3722L142.372 28.876Z" fill="#0D0D0D"/>
<path d="M68.674 46.3333C68.5833 46.3192 68.4937 46.3019 68.4031 46.2921C67.8785 46.2356 67.6076 45.9663 67.5514 45.4408C67.4683 44.6731 67.5234 43.9044 67.5136 43.1367C67.4931 42.7112 67.505 42.2846 67.5493 41.8609C67.6194 41.3625 67.8418 41.1128 68.3308 41.0314C68.4937 41.003 68.6587 40.9881 68.824 40.9868C70.1316 40.9868 71.4387 40.9868 72.7455 40.9868C72.8559 40.9845 72.9663 40.9903 73.0758 41.0042C73.7234 41.0998 73.9739 41.3006 74.0138 41.9575C74.084 43.0947 74.084 44.2352 74.0138 45.3724C73.9717 46.0239 73.7137 46.228 73.0607 46.2997C73.016 46.3082 72.972 46.3198 72.929 46.3344L68.674 46.3333ZM70.7702 45.2606C71.3412 45.2606 71.9111 45.2606 72.4821 45.2606C72.6635 45.2606 72.7498 45.2139 72.7487 45.0108C72.7408 44.0944 72.7408 43.178 72.7487 42.2616C72.7487 42.0672 72.6775 42.0021 72.4886 42.0032C71.348 42.0082 70.2071 42.0082 69.0658 42.0032C68.8845 42.0032 68.7992 42.052 68.8003 42.254C68.8082 43.1704 68.8082 44.0872 68.8003 45.0043C68.8003 45.1998 68.8705 45.2638 69.0593 45.2606C69.6293 45.2551 70.2003 45.2606 70.7702 45.2606Z" fill="#0D0D0D"/>
<path d="M119.829 46.3334C119.805 46.3211 119.779 46.3117 119.752 46.3052C118.997 46.1966 118.781 46.0413 118.743 45.3138C118.668 44.1494 118.675 42.981 118.764 41.8175C118.808 41.3398 119.056 41.1172 119.519 41.0303C119.691 40.9991 119.865 40.9835 120.039 40.9836C121.328 40.9836 122.617 40.9836 123.906 40.9836H124.044C124.853 40.9988 125.175 41.2453 125.218 42.0542C125.286 43.1543 125.282 44.2577 125.207 45.3573C125.154 46.0294 124.905 46.2368 124.242 46.2976C124.187 46.3055 124.134 46.3171 124.081 46.3323L119.829 46.3334ZM121.967 45.2606C122.537 45.2606 123.108 45.2541 123.678 45.2606C123.875 45.2606 123.959 45.2085 123.957 44.9946C123.948 44.0869 123.948 43.1795 123.957 42.2725C123.957 42.0629 123.882 42 123.682 42.001C122.55 42.0076 121.418 42.0076 120.287 42.001C120.091 42.001 120.006 42.0553 120.008 42.2692C120.017 43.1762 120.017 44.0836 120.008 44.9913C120.008 45.2009 120.084 45.2639 120.283 45.2606C120.845 45.2541 121.406 45.2606 121.972 45.2606H121.967Z" fill="#0D0D0D"/>
<path d="M137.454 46.3332C137.411 46.317 137.367 46.3057 137.322 46.2996C136.531 46.2703 136.322 45.7436 136.341 45.0433C136.341 44.9881 136.362 44.9349 136.399 44.8945C136.437 44.8542 136.488 44.8297 136.543 44.8261C136.768 44.7816 136.996 44.7469 137.218 44.6872C137.439 44.6274 137.498 44.7219 137.47 44.9043C137.425 45.217 137.578 45.2702 137.848 45.267C138.824 45.2532 139.799 45.2532 140.774 45.267C141.036 45.267 141.098 45.1769 141.098 44.9293C141.098 44.1258 141.098 44.1258 140.299 44.1258C139.453 44.1258 138.606 44.1258 137.759 44.1258C137.585 44.1274 137.41 44.108 137.24 44.0682C137.079 44.0425 136.93 43.9653 136.816 43.848C136.702 43.7307 136.628 43.5795 136.606 43.4168C136.513 42.8498 136.513 42.2714 136.606 41.7044C136.668 41.3179 136.929 41.1138 137.292 41.041C137.481 41.0023 137.674 40.983 137.867 40.9835C138.875 40.9835 139.878 40.9835 140.878 40.9835C141.052 40.9821 141.227 40.9989 141.398 41.0334C141.526 41.0537 141.649 41.1006 141.758 41.1709C141.867 41.2413 141.961 41.3337 142.033 41.4422C142.104 41.5508 142.153 41.6732 142.176 41.8017C142.198 41.9302 142.194 42.062 142.163 42.1887C142.156 42.2343 142.135 42.2763 142.101 42.3082C142.068 42.34 142.025 42.3599 141.98 42.3646C141.739 42.4232 141.496 42.4732 141.256 42.5383C141.073 42.5872 141.008 42.4993 141.029 42.3396C141.068 42.0367 140.913 41.9911 140.656 41.9944C139.773 42.0067 138.889 42.0067 138.005 41.9944C137.771 41.9944 137.682 42.0584 137.682 42.3082C137.682 43.0367 137.682 43.0367 138.411 43.0367C139.258 43.0367 140.105 43.0367 140.951 43.0367C141.089 43.0333 141.228 43.0412 141.365 43.0606C141.945 43.1562 142.15 43.3744 142.228 43.9694C142.287 44.4475 142.287 44.9311 142.228 45.4092C142.155 45.9955 141.896 46.2431 141.317 46.2941C141.245 46.3007 141.174 46.3191 141.101 46.3321L137.454 46.3332Z" fill="#0D0D0D"/>
<path d="M76.5171 46.3332C76.5171 45.6817 76.5041 45.0367 76.502 44.3885C76.502 43.3603 76.502 42.332 76.502 41.3037C76.502 41.0627 76.5808 40.9856 76.8204 40.978C76.9923 40.9633 77.1654 40.984 77.3291 41.0389C77.4928 41.0937 77.6437 41.1817 77.7724 41.2972C79.0126 42.3722 80.2777 43.4189 81.5503 44.4873C81.5983 44.3991 81.611 44.2958 81.5859 44.1985C81.5082 43.2365 81.573 42.2723 81.5481 41.3103C81.5417 41.0779 81.6129 40.9639 81.8623 40.9845C82.0727 41.0008 82.2854 40.991 82.4969 40.9845C82.6578 40.9845 82.7355 41.0551 82.7279 41.2201C82.7279 41.294 82.7279 41.3678 82.7279 41.4373C82.7279 42.9379 82.7279 44.4385 82.7279 45.939C82.7279 46.0682 82.7182 46.1975 82.7128 46.3278H81.818C81.7532 46.2615 81.6928 46.1909 81.6237 46.1323L78.7525 43.7034C78.392 43.3983 78.0336 43.0899 77.645 42.7587C77.7141 43.9813 77.6839 45.154 77.6742 46.3278L76.5171 46.3332Z" fill="#0D0D0D"/>
<path d="M99.8322 46.3334C99.8322 44.6373 99.8282 42.942 99.8203 41.2474C99.8203 41.0574 99.898 40.9934 100.084 40.9814C100.269 40.9605 100.457 40.9793 100.634 41.0366C100.812 41.0938 100.976 41.1883 101.115 41.3137C102.344 42.3875 103.597 43.4267 104.871 44.4973C104.91 44.3433 104.917 44.1828 104.891 44.026C104.818 43.1194 104.881 42.2116 104.855 41.305C104.847 41.0661 104.932 40.9641 105.178 40.9793C105.381 40.9896 105.583 40.9896 105.785 40.9793C105.974 40.9727 106.053 41.0531 106.044 41.2431C106.035 41.4331 106.044 41.6503 106.044 41.8544C106.044 43.216 106.044 44.578 106.044 45.9403C106.044 46.0695 106.032 46.1987 106.026 46.3279H105.134C105.063 46.2552 104.997 46.1781 104.918 46.1108C103.934 45.2747 102.948 44.4404 101.962 43.608C101.638 43.3322 101.314 43.0553 100.976 42.7687C101.017 43.9772 101.002 45.1509 100.989 46.3258L99.8322 46.3334Z" fill="#0D0D0D"/>
<path d="M127.73 46.3333C127.73 45.6818 127.716 45.0368 127.715 44.3886C127.715 43.3592 127.715 42.331 127.715 41.3027C127.715 41.0606 127.797 40.9911 128.033 40.977C128.21 40.9632 128.388 40.9867 128.555 41.0462C128.723 41.1057 128.876 41.1997 129.005 41.3223C130.238 42.3907 131.496 43.4331 132.743 44.483C132.823 44.4516 132.799 44.3864 132.795 44.3376C132.702 43.3299 132.777 42.319 132.748 41.3114C132.742 41.0769 132.814 40.964 133.062 40.9857C133.246 40.9992 133.43 40.9992 133.614 40.9857C133.852 40.9683 133.938 41.0628 133.938 41.306C133.928 42.2604 133.938 43.2148 133.938 44.1682C133.938 44.8913 133.931 45.6134 133.927 46.3398H133.044C132.999 46.2931 132.956 46.2431 132.908 46.2019L129.611 43.4124C129.372 43.2094 129.135 43.0031 128.837 42.7479C128.895 43.2888 128.917 43.8329 128.903 44.3766C128.903 44.8957 128.903 45.4147 128.903 45.9326C128.92 46.0714 128.9 46.2122 128.846 46.3409L127.73 46.3333Z" fill="#0D0D0D"/>
<path d="M60.5548 46.3334C60.5199 46.3196 60.4838 46.309 60.4469 46.3019C59.6805 46.215 59.4333 45.9479 59.429 45.1737C59.4247 44.1538 59.4247 43.135 59.429 42.1172C59.429 41.343 59.7453 41.0043 60.5171 40.9912C61.7037 40.9717 62.891 40.9717 64.0791 40.9912C64.8757 41.0043 65.1984 41.3506 65.2006 42.1487C65.2027 42.9468 65.2858 42.7861 64.5594 42.899C63.9118 43 63.8999 42.9858 63.9118 42.3365C63.9118 42.0825 63.8394 41.9978 63.5879 42.0021C62.7417 42.0162 61.8944 42.014 61.0481 42.0021C60.8171 42.0021 60.7178 42.0607 60.7243 42.3126C60.7358 43.1936 60.7358 44.0735 60.7243 44.9522C60.7243 45.2041 60.816 45.266 61.0481 45.2639C61.9044 45.253 62.7604 45.253 63.616 45.2639C63.8427 45.2639 63.9334 45.1944 63.9161 44.962C63.901 44.7601 63.9161 44.5548 63.9161 44.3518C63.9085 44.1694 63.9906 44.1227 64.1525 44.1585C64.431 44.2204 64.7105 44.2769 64.989 44.3366C65.1142 44.3637 65.2157 44.4148 65.2124 44.5711C65.206 44.8665 65.2405 45.164 65.1876 45.4582C65.0883 46.0152 64.8465 46.2378 64.2863 46.2943C64.2237 46.3008 64.1622 46.3193 64.0996 46.3323L60.5548 46.3334Z" fill="#0D0D0D"/>
<path d="M92.2072 46.3334C92.2072 44.6381 92.2032 42.9439 92.1953 41.2507C92.1953 41.064 92.2666 40.9836 92.4565 40.9836C94.0943 40.9836 95.7318 40.9836 97.3689 40.9836C97.5416 40.9836 97.6225 41.052 97.6225 41.229C97.6225 42.1248 97.6808 41.9478 96.9684 41.9543C95.9192 41.9645 94.8704 41.9645 93.822 41.9543C93.5813 41.9543 93.4798 42.0086 93.482 42.2801C93.4906 43.0554 93.482 43.0554 94.2559 43.0554C94.6876 43.0554 95.1194 43.0651 95.5512 43.0554C95.8059 43.0478 95.9182 43.127 95.9138 43.4017C95.9009 44.152 95.9462 44.0163 95.2921 44.025C94.7776 44.0315 94.2627 44.0315 93.7475 44.025C93.5597 44.025 93.4766 44.0836 93.4852 44.2791C93.4982 44.5102 93.4982 44.7418 93.4852 44.9729C93.4701 45.2053 93.5608 45.2758 93.7874 45.2747C94.9467 45.265 96.106 45.2747 97.2653 45.2747C97.6765 45.2747 97.683 45.2747 97.6765 45.6895C97.6765 45.9067 97.7208 46.1347 97.6215 46.3475L92.2072 46.3334Z" fill="#0D0D0D"/>
<path d="M87.0697 46.3335C86.625 45.5452 86.1796 44.7573 85.7334 43.9697C85.2347 43.0956 84.7296 42.2237 84.2298 41.3497C84.0344 41.0076 84.0474 40.987 84.4273 40.9848C84.6756 40.9848 84.9249 41.0011 85.1721 40.9848C85.4193 40.9685 85.5521 41.0717 85.6686 41.2834C86.2677 42.3779 86.8797 43.4648 87.4874 44.5539C87.5133 44.6006 87.5425 44.6472 87.5954 44.7319C87.7486 44.4485 87.889 44.1955 88.0271 43.9393C88.4988 43.05 88.9759 42.1629 89.4303 41.2671C89.5383 41.0554 89.6732 40.9664 89.9064 40.9859C90.0974 41.0022 90.2917 40.9859 90.4849 40.9859C90.8595 40.9859 90.8735 41.0065 90.7008 41.3279C90.2863 42.0909 89.87 42.8531 89.4519 43.6146C88.9547 44.5224 88.4556 45.429 87.9548 46.3346L87.0697 46.3335Z" fill="#0D0D0D"/>
<path d="M109.883 46.3334C109.828 46.2052 109.808 46.0646 109.825 45.9262C109.825 44.7405 109.818 43.5559 109.825 42.3702C109.825 42.0976 109.758 41.9912 109.47 42.001C108.892 42.0216 108.311 42.001 107.732 42.0097C107.506 42.0097 107.423 41.9315 107.428 41.7013C107.447 40.8729 107.327 40.989 108.123 40.9869C109.797 40.9814 111.469 40.9869 113.147 40.9869C113.529 40.9869 113.536 40.9934 113.534 41.3734C113.534 42.0911 113.608 42.0043 112.898 42.0086C112.402 42.0086 111.904 42.0184 111.408 42.0086C111.179 42.0086 111.107 42.0824 111.109 42.3126C111.117 43.5255 111.109 44.7383 111.109 45.9512C111.109 46.0804 111.097 46.2096 111.09 46.3388L109.883 46.3334Z" fill="#0D0D0D"/>
<path d="M114.968 46.3331C114.962 45.3508 114.957 44.3689 114.953 43.3873C114.953 42.6924 114.961 41.9975 114.953 41.3026C114.953 41.0604 115.033 40.966 115.277 40.9823C115.498 40.9958 115.719 40.9958 115.94 40.9823C116.178 40.967 116.264 41.0593 116.264 41.3026C116.254 42.257 116.264 43.2114 116.264 44.1647C116.264 44.8879 116.257 45.61 116.254 46.3364L114.968 46.3331Z" fill="#0D0D0D"/>
<path d="M61.4472 15.7171C62.0948 15.9657 62.6723 16.1872 63.253 16.4163C65.5921 17.3414 67.9236 18.2817 70.1612 19.4446C70.7654 19.7424 71.3382 20.1007 71.8709 20.5141C72.103 20.702 72.1948 20.8985 72.1289 21.2091C71.9929 21.8247 71.8148 22.4035 71.341 22.8573C70.8487 23.322 70.2616 23.3904 69.6798 23.0517C67.1065 21.5315 64.5328 20.0154 61.9588 18.5032C61.8659 18.4276 61.7537 18.3798 61.635 18.3653C61.7321 19.0863 61.8271 19.7986 61.9221 20.5109L62.6691 26.0659C62.6691 26.0941 62.6691 26.1212 62.6766 26.1495C62.7619 26.8857 62.9108 26.7445 62.1283 27.0094C61.4399 27.2469 60.7221 27.3873 59.9954 27.4264C59.2571 27.4633 58.5403 27.3678 57.924 26.9019C57.6067 26.662 57.4296 26.409 57.5376 25.9421C57.9529 24.0811 58.2486 22.1951 58.4227 20.2959C58.5369 19.2283 58.5978 18.1556 58.6051 17.0819C58.6089 17.0134 58.5991 16.9448 58.5763 16.8801C58.5535 16.8154 58.5182 16.756 58.4723 16.7051C57.9326 16.1047 57.8733 15.4022 58.3428 14.7507C58.5345 14.4816 58.6327 14.1565 58.6224 13.8256C58.6461 12.047 58.6699 10.2696 58.6526 8.49103C58.6583 8.37985 58.6514 8.26839 58.6321 8.15877C58.5242 7.71685 58.6904 7.39871 59.0358 7.12617C59.8993 6.42909 60.9139 6.52138 61.6264 7.38134C61.7044 7.4739 61.7432 7.59362 61.7343 7.71468C61.6803 9.11971 61.6263 10.5258 61.5756 11.9319C61.5627 12.3011 61.5756 12.6703 61.5756 13.059C61.7181 13.0438 61.798 12.9363 61.8919 12.8603C64.3752 10.861 66.8589 8.85658 69.343 6.84712C69.415 6.7837 69.4989 6.7353 69.5897 6.70473C69.6805 6.67416 69.7764 6.66203 69.8719 6.66905C70.442 6.69986 71.0041 6.81851 71.5385 7.02085C72.3103 7.31185 72.5283 7.9579 72.606 8.69082C72.6349 8.90263 72.6221 9.1181 72.5682 9.32493C72.5382 9.44595 72.4832 9.55927 72.4068 9.65748C72.3303 9.7557 72.2342 9.83662 72.1246 9.89498C69.5801 11.2761 67.0385 12.6609 64.4997 14.0493L61.4472 15.7171Z" fill="#0D0D0D"/>
<path d="M104.552 15.9602C105.044 15.3642 105.659 14.8827 106.354 14.5487C107.193 14.1545 108.081 13.933 109.005 14.0242C109.803 14.1024 110.43 14.5411 110.924 15.1676C111.544 15.957 111.807 16.8908 111.939 17.8626C112.224 19.9462 111.988 22.0016 111.538 24.0354C111.287 25.17 110.442 25.7531 109.277 25.739C108.425 25.7281 107.788 25.4067 107.363 24.6586C107.298 24.553 107.258 24.4339 107.247 24.3103C107.235 24.1868 107.252 24.0622 107.296 23.9463C107.703 22.7259 108.117 21.5076 108.398 20.2546C108.643 19.159 108.812 18.0547 108.769 16.9266C108.769 16.8701 108.769 16.818 108.762 16.7594C108.697 16.0438 108.497 15.8592 107.79 15.8755C106.736 15.8994 105.955 16.4597 105.269 17.197C105.085 17.4162 104.918 17.6489 104.768 17.893C104.248 18.653 104.329 19.475 104.444 20.323C104.643 21.7345 104.801 23.1461 104.974 24.5631C105.023 24.9626 104.775 25.1939 104.466 25.3416C103.875 25.6404 103.194 25.7021 102.559 25.5142C102.063 25.3633 101.618 25.0973 101.168 24.8421C100.994 24.7433 100.986 24.5761 100.976 24.4078C100.93 23.2801 100.944 22.1506 101.018 21.0244C101.061 20.2209 101.089 19.4153 101.138 18.6129C101.221 17.2361 101.313 15.8614 101.404 14.4868C101.476 13.3793 101.555 12.2721 101.639 11.1653C101.707 10.2608 101.77 9.35636 101.866 8.4508C101.974 7.46272 102.639 6.93067 103.637 7.00342C103.849 7.00728 104.061 7.02761 104.27 7.06423C104.969 7.22275 105.282 7.66033 105.195 8.37588C105.026 9.74834 104.931 11.1327 104.81 12.515C104.726 13.5107 104.635 14.5053 104.55 15.4998C104.542 15.6269 104.552 15.7561 104.552 15.9602Z" fill="#0D0D0D"/>
<path d="M79.1602 23.6659C78.1639 24.5476 77.0964 25.0775 75.8669 25.2469C75.1815 25.3435 74.4918 25.3652 73.8161 25.1893C72.4808 24.844 72.197 24.084 72.4128 22.9091C72.5942 21.9319 73.2127 21.1914 73.9035 20.5258C75.1826 19.2945 76.6991 18.4237 78.2902 17.6755C78.9702 17.3552 79.2616 16.9209 79.2206 16.2564C79.2068 16.066 79.1475 15.8818 79.0477 15.7194C78.9479 15.557 78.8106 15.4213 78.6475 15.3237C78.5526 15.2544 78.4361 15.2218 78.3193 15.232C78.2025 15.2421 78.0933 15.2944 78.0117 15.3791C77.7688 15.606 77.5238 15.8329 77.3047 16.0816C77.1581 16.2577 76.9771 16.4015 76.7728 16.5041C76.5685 16.6066 76.3454 16.6657 76.1173 16.6777C75.4373 16.7287 74.7627 16.8026 74.0881 16.6495C73.8519 16.6051 73.628 16.5099 73.4318 16.3704C73.0367 16.0686 72.9806 15.6798 73.285 15.2922C73.7027 14.7623 74.2565 14.4236 74.8663 14.163C75.813 13.7504 76.8092 13.5549 77.8325 13.4529C78.0484 13.4311 78.2729 13.4214 78.492 13.3964C79.1861 13.3193 79.6966 13.6505 80.1295 14.1434C80.8678 14.9838 81.2531 16.0056 81.5543 17.061C82.0281 18.719 82.2775 20.427 82.5096 22.1273C82.6354 22.9696 82.6903 23.821 82.6736 24.6725C82.6736 24.7192 82.6736 24.7659 82.6736 24.8115C82.652 25.3544 82.6035 25.4163 82.0735 25.5107C81.3837 25.6334 80.6918 25.7279 79.9913 25.6052C79.8642 25.5844 79.739 25.5536 79.6168 25.5129C79.0576 25.3207 78.8364 24.9222 78.9691 24.3424C79.0123 24.1437 79.0781 23.9439 79.1602 23.6659ZM79.5315 20.6365C79.5714 20.2022 79.4959 19.8265 79.4829 19.4476C79.4764 19.2891 79.4268 19.1913 79.2444 19.2695C78.0376 19.7809 76.8492 20.3271 75.854 21.2098C75.5053 21.5193 75.2182 21.882 75.12 22.3586C75.0261 22.8125 75.2517 23.1686 75.6964 23.2512C76.8308 23.4607 77.8358 23.1426 78.7716 22.4998C79.2422 22.174 79.5056 21.7614 79.5272 21.1968C79.539 20.9938 79.5315 20.7896 79.5315 20.6365Z" fill="#0D0D0D"/>
<path d="M96.5383 23.7477C95.664 24.4611 94.7152 24.9703 93.6239 25.1853C92.7766 25.3525 91.9238 25.3959 91.0819 25.156C90.4148 24.9649 89.873 24.6131 89.7715 23.853C89.6911 23.2793 89.7888 22.6945 90.0511 22.1787C90.4261 21.4641 90.9323 20.8275 91.5428 20.3024C92.7798 19.1949 94.1981 18.3784 95.6899 17.6791C96.2091 17.4359 96.5728 17.0863 96.6192 16.4782C96.6351 16.2829 96.6042 16.0866 96.5291 15.9058C96.454 15.725 96.3368 15.5649 96.1875 15.4391C95.9003 15.172 95.6478 15.1633 95.3542 15.4239C95.1468 15.608 94.9511 15.8049 94.768 16.0135C94.4205 16.4098 94.0233 16.6585 93.4728 16.691C92.8014 16.729 92.1343 16.8105 91.4705 16.6509C91.1629 16.5781 90.8671 16.4728 90.6588 16.2111C90.4256 15.9179 90.417 15.6519 90.6372 15.3533C91.0506 14.7909 91.627 14.4478 92.2477 14.1731C93.1846 13.7594 94.1765 13.5683 95.1869 13.4597C95.4243 13.4336 95.664 13.4271 95.9014 13.401C96.5728 13.3272 97.0747 13.6443 97.4979 14.1177C98.2534 14.9668 98.6474 16.0081 98.9529 17.0819C99.4224 18.7323 99.6707 20.4262 99.9017 22.1233C100.029 22.9658 100.084 23.8176 100.068 24.6695C100.068 24.7249 100.068 24.7781 100.068 24.8357C100.043 25.3634 99.9956 25.4209 99.4764 25.5132C98.7867 25.6359 98.0937 25.7304 97.3932 25.6098C97.2658 25.5897 97.1402 25.5596 97.0175 25.5197C96.4476 25.3254 96.2252 24.9193 96.3699 24.3253C96.4141 24.1321 96.48 23.941 96.5383 23.7477ZM96.9398 20.5717C96.9447 20.322 96.9349 20.0722 96.9107 19.8236C96.8211 19.1949 96.8254 19.1895 96.2512 19.4414C95.2128 19.8985 94.1949 20.3969 93.3281 21.1504C92.9536 21.4762 92.6362 21.8443 92.5251 22.3448C92.4171 22.8128 92.647 23.1679 93.1123 23.2526C94.2586 23.4599 95.2646 23.1342 96.208 22.4827C96.7164 22.1287 96.9215 21.6619 96.9398 21.0712C96.9441 20.905 96.9398 20.7378 96.9398 20.5717Z" fill="#0D0D0D"/>
<path d="M119.525 23.7497C118.647 24.4685 117.69 24.9756 116.586 25.1895C115.739 25.3535 114.887 25.3904 114.044 25.1515C113.273 24.9344 112.791 24.4175 112.749 23.7736C112.696 23.1318 112.844 22.4894 113.172 21.9365C113.687 21.0591 114.398 20.3675 115.192 19.7529C116.237 18.962 117.365 18.2871 118.555 17.7398C118.857 17.5965 119.15 17.451 119.36 17.1741C119.563 16.8999 119.649 16.5564 119.601 16.2184C119.552 15.8803 119.373 15.5752 119.102 15.3695C118.855 15.1882 118.637 15.1817 118.398 15.3869C118.171 15.5763 117.96 15.784 117.767 16.008C117.609 16.2113 117.409 16.3779 117.181 16.4963C116.953 16.6147 116.702 16.6822 116.446 16.6942C115.798 16.7322 115.144 16.8082 114.503 16.6594C114.368 16.6296 114.236 16.5882 114.108 16.5357C113.436 16.2533 113.306 15.705 113.784 15.1675C114.262 14.6301 114.913 14.2826 115.592 14.0296C116.637 13.6409 117.728 13.4943 118.83 13.3988C119.57 13.3347 120.104 13.6659 120.557 14.1957C120.953 14.6738 121.27 15.2122 121.497 15.7908C122.044 17.0938 122.307 18.4803 122.549 19.8669C122.752 21.0341 122.93 22.2046 123.03 23.3849C123.072 23.912 123.075 24.4415 123.04 24.9691C123.015 25.3817 122.948 25.4317 122.522 25.5055C121.813 25.6271 121.103 25.7335 120.383 25.6141C120.236 25.5919 120.092 25.5555 119.952 25.5055C119.412 25.3003 119.206 24.9061 119.348 24.3372C119.401 24.1341 119.467 23.943 119.525 23.7497ZM119.927 20.551C119.951 20.1698 119.888 19.7909 119.867 19.4163C119.858 19.2447 119.785 19.2111 119.635 19.2741C118.419 19.7855 117.226 20.3381 116.228 21.2285C115.88 21.539 115.597 21.9039 115.502 22.3805C115.414 22.8149 115.641 23.171 116.072 23.2492C117.249 23.4663 118.284 23.1341 119.234 22.4424C119.603 22.1742 119.849 21.8518 119.894 21.3773C119.92 21.1026 119.92 20.8268 119.927 20.551Z" fill="#0D0D0D"/>
<path d="M84.1937 22.8734C84.1937 20.9754 84.1646 19.0731 84.2034 17.1795C84.2304 15.8179 84.2034 14.4563 84.2542 13.0957C84.3049 11.7352 84.2747 10.3736 84.3038 9.01312C84.3232 8.12819 84.6741 7.4311 85.4232 6.9338C86.1366 6.46039 86.9926 6.9338 87.1944 7.58529C87.2618 7.79599 87.2982 8.01548 87.3024 8.23677C87.3218 9.56037 87.4697 10.8764 87.5593 12.1956C87.6183 13.0643 87.6791 13.9329 87.7417 14.8015C87.827 15.9731 87.9155 17.1447 88.0008 18.3163C88.0623 19.1643 88.1206 20.0134 88.1821 20.8625C88.2685 22.0569 88.3526 23.2426 88.4466 24.4326C88.466 24.678 88.4617 24.906 88.222 25.0385C87.3769 25.5032 86.495 25.8344 85.5106 25.6683C85.2474 25.6196 84.9946 25.5252 84.7636 25.3892C84.3319 25.1417 84.0383 24.8355 84.1052 24.2643C84.1592 23.8072 84.116 23.3392 84.116 22.8756L84.1937 22.8734Z" fill="#0D0D0D"/>
<path d="M127.058 16.2303C127.36 15.7928 127.702 15.3846 128.08 15.0109C128.747 14.3746 129.529 13.9902 130.454 13.9685C131.858 13.937 132.855 14.9045 132.937 16.3312C132.937 16.3779 132.937 16.4235 132.937 16.4702C132.982 17.6147 132.241 18.214 131.127 17.923C130.645 17.7971 130.392 17.4561 130.312 16.9751C130.204 16.3486 129.92 16.1173 129.302 16.2856C128.301 16.5593 127.55 17.1402 127.285 18.2097C127.202 18.5348 127.212 18.8769 127.313 19.1967C127.798 20.732 128.285 22.2662 128.825 23.7853C128.896 23.9871 128.923 24.202 128.904 24.4153C128.885 24.6287 128.82 24.8353 128.714 25.021C128.608 25.2067 128.463 25.3671 128.289 25.4912C128.116 25.6153 127.918 25.7001 127.708 25.7397C127.047 25.8603 126.381 25.9471 125.706 25.8342C125.032 25.7213 124.862 25.5421 124.78 24.8819C124.564 23.1447 124.399 21.4045 124.285 19.6614C124.193 18.2857 124.103 16.9089 124.139 15.5288C124.141 15.2875 124.182 15.0482 124.263 14.8209C124.322 14.634 124.432 14.4679 124.582 14.3423C124.732 14.2167 124.914 14.1367 125.107 14.1118C125.28 14.0858 125.451 14.0478 125.624 14.0261C126.246 13.9468 126.856 14.4528 126.919 15.0836C126.955 15.4691 127.01 15.8491 127.058 16.2303Z" fill="#0D0D0D"/>
<path d="M133.738 21.8072C133.793 19.9658 133.951 18.129 134.211 16.3054L134.282 15.7832C134.39 14.9753 134.851 14.5334 135.668 14.4661C135.907 14.4482 136.147 14.4482 136.386 14.4661C136.904 14.5008 137.203 14.8906 137.173 15.4086C137.157 15.9727 137.189 16.5371 137.267 17.0959C137.416 18.4647 137.575 19.8336 137.743 21.2024C137.875 22.2766 138.016 23.3494 138.166 24.4207C138.244 24.9767 138.129 25.2286 137.609 25.4436C136.726 25.8095 135.85 25.7552 134.94 25.4805C134.28 25.2818 133.968 24.9083 133.891 24.2427C133.787 23.4351 133.736 22.6215 133.738 21.8072Z" fill="#0D0D0D"/>
<path d="M132.01 32.0429C132.407 32.0291 132.803 32.0436 133.198 32.0864C133.737 32.1624 134.006 32.4631 134.047 33.0093C134.099 33.7129 134.168 33.6206 133.472 33.739L133.418 33.7509C132.961 33.8389 132.947 33.8389 132.962 33.3839C132.972 33.1266 132.89 33.0397 132.638 33.0516C132.235 33.069 131.829 33.0516 131.424 33.0582C131.316 33.0582 131.183 33.0115 131.136 33.1526C131.114 33.2192 131.116 33.2912 131.139 33.357C131.163 33.4229 131.208 33.479 131.267 33.5164C131.786 33.9453 132.301 34.3796 132.817 34.8128C133.099 35.0495 133.388 35.2808 133.664 35.5251C133.682 35.5484 133.705 35.5672 133.732 35.5801C133.758 35.593 133.787 35.5997 133.817 35.5997C133.846 35.5997 133.875 35.593 133.902 35.5801C133.928 35.5672 133.951 35.5484 133.969 35.5251C134.293 35.2471 134.626 34.9822 134.941 34.7021C135.107 34.5511 135.237 34.5533 135.383 34.7129C135.446 34.7802 135.52 34.8367 135.588 34.8975C135.979 35.2493 135.979 35.2493 135.565 35.5946C135.316 35.8009 135.075 36.0148 134.819 36.2113C134.67 36.3253 134.688 36.3916 134.819 36.5023C135.304 36.8997 135.781 37.308 136.258 37.7152C136.315 37.764 136.427 37.8031 136.38 37.9041C136.345 37.9779 136.247 37.9465 136.177 37.9475C135.762 37.9475 135.348 37.941 134.934 37.9475C134.843 37.9528 134.751 37.9392 134.665 37.9074C134.579 37.8757 134.5 37.8265 134.434 37.763C134.306 37.6435 134.166 37.536 134.035 37.4198C133.647 37.0756 133.704 37.1202 133.376 37.4383C133.199 37.6145 132.987 37.751 132.754 37.8386C132.521 37.9262 132.272 37.963 132.024 37.9465C131.189 37.9161 130.35 37.9986 129.516 37.8943C128.929 37.8216 128.664 37.5371 128.59 36.9399C128.548 36.6093 128.542 36.2752 128.57 35.9431C128.58 35.7896 128.628 35.6409 128.708 35.5102C128.789 35.3795 128.901 35.2709 129.033 35.1939C129.424 34.9507 129.816 34.7064 130.213 34.474C130.373 34.3818 130.397 34.3199 130.259 34.17C129.936 33.8215 129.859 32.967 130.081 32.5413C130.139 32.4356 130.219 32.3438 130.316 32.2722C130.412 32.2006 130.523 32.1509 130.641 32.1265C131.094 32.0147 131.555 32.0462 132.01 32.0429ZM131.106 36.8617C131.391 36.8617 131.677 36.8422 131.96 36.8672C132.1 36.8812 132.242 36.861 132.374 36.8085C132.505 36.756 132.622 36.6726 132.715 36.5653C132.823 36.4502 132.838 36.3851 132.715 36.2808C132.268 35.9131 131.823 35.541 131.381 35.1646C131.334 35.1135 131.27 35.0822 131.201 35.0771C131.132 35.0721 131.063 35.0937 131.01 35.1375C130.79 35.3055 130.555 35.451 130.307 35.5718C129.817 35.7705 129.698 36.1299 129.775 36.6066C129.776 36.6156 129.776 36.6247 129.775 36.6337C129.765 36.7977 129.84 36.8661 130.005 36.8628C130.374 36.8574 130.742 36.8617 131.109 36.8617H131.106Z" fill="#0D0D0D"/>
<path d="M95.9294 37.4556C95.1932 37.4556 94.456 37.4611 93.7199 37.4556C92.8391 37.448 92.5034 37.1299 92.4796 36.2276C92.4602 35.4675 92.471 34.7075 92.4796 33.9474C92.4796 33.5315 92.4559 33.1157 92.5239 32.6998C92.6048 32.2079 92.8617 31.9397 93.3486 31.8681C93.4393 31.8531 93.5308 31.8441 93.6227 31.8409C95.2515 31.8214 96.8803 31.7606 98.507 31.8757C99.0381 31.9126 99.3392 32.2525 99.3479 32.804C99.3662 34.0364 99.3695 35.2688 99.3479 36.4958C99.336 37.1028 98.9582 37.4317 98.3095 37.4448C97.5183 37.46 96.726 37.4448 95.9348 37.4448L95.9294 37.4556ZM95.8959 36.3611C96.5036 36.3611 97.1103 36.3557 97.718 36.3611C97.9101 36.3611 98.0029 36.3166 98.0018 36.0995C97.9932 35.1222 97.9954 34.1374 98.0018 33.1558C98.0018 32.9723 97.95 32.8877 97.7514 32.8887C96.5281 32.8945 95.3048 32.8945 94.0815 32.8887C93.8861 32.8887 93.8278 32.9626 93.83 33.1515C93.83 34.1287 93.8375 35.1136 93.83 36.0951C93.83 36.3123 93.9077 36.3644 94.1063 36.3611C94.7 36.3557 95.2979 36.3611 95.8959 36.3611Z" fill="#0D0D0D"/>
<path d="M120.014 37.4548C119.366 37.4548 118.725 37.4613 118.08 37.4548C117.242 37.4428 116.877 37.0487 116.893 36.2039C116.893 36.0128 116.959 35.9108 117.147 35.8782C117.382 35.8369 117.618 35.7946 117.849 35.7338C118.047 35.6817 118.131 35.7479 118.123 35.951C118.1 36.4569 118.198 36.3668 118.581 36.3679C119.594 36.3679 120.606 36.3625 121.619 36.3744C121.862 36.3744 121.954 36.2984 121.935 36.0552C121.921 35.8611 121.921 35.6662 121.935 35.4721C121.95 35.243 121.858 35.1627 121.631 35.1648C120.618 35.1728 119.606 35.1728 118.593 35.1648C118.354 35.1628 118.116 35.1396 117.881 35.0953C117.461 35.0172 117.226 34.7457 117.167 34.3212C117.088 33.7812 117.088 33.2324 117.167 32.6925C117.245 32.181 117.514 31.9324 118.031 31.877C118.295 31.8499 118.562 31.8347 118.828 31.8325C119.749 31.8271 120.67 31.8325 121.59 31.8325C121.866 31.8279 122.141 31.8608 122.409 31.9302C122.89 32.0659 123.211 32.6903 123.056 33.1593C123.044 33.1942 123.023 33.225 122.994 33.2482C122.965 33.2714 122.931 33.2861 122.895 33.2907C122.636 33.3537 122.374 33.408 122.116 33.4786C121.923 33.5318 121.875 33.4503 121.867 33.2723C121.854 32.902 121.848 32.902 121.478 32.902C120.53 32.902 119.582 32.9096 118.634 32.8966C118.375 32.8966 118.31 32.9802 118.31 33.2321C118.32 33.9998 118.31 33.9998 119.066 33.9998C119.959 33.9998 120.851 33.9998 121.744 33.9998C121.946 34.0017 122.149 34.0195 122.348 34.053C122.808 34.1322 123.058 34.3972 123.124 34.8673C123.204 35.407 123.208 35.9551 123.139 36.496C123.048 37.1757 122.738 37.4428 122.048 37.4548C121.377 37.4667 120.704 37.4548 120.033 37.4548H120.014Z" fill="#0D0D0D"/>
<path d="M86.8753 37.4547C86.2277 37.4547 85.5876 37.4612 84.9432 37.4547C84.0969 37.4438 83.7235 37.0334 83.7558 36.1756C83.7612 36.0105 83.8195 35.9161 83.9825 35.8857C84.2265 35.839 84.4715 35.7955 84.7122 35.7337C84.9065 35.6837 84.9939 35.7434 84.9842 35.9508C84.9605 36.4503 85.0392 36.3667 85.4386 36.3678C86.4694 36.3678 87.4992 36.3678 88.53 36.3732C88.7621 36.3732 88.8441 36.2972 88.8258 36.0703C88.8096 35.8853 88.8096 35.6993 88.8258 35.5143C88.8506 35.2516 88.7578 35.1593 88.4869 35.1625C87.4841 35.1766 86.4813 35.1712 85.4786 35.1625C85.2578 35.1609 85.0374 35.1435 84.819 35.1104C84.619 35.0936 84.431 35.0073 84.2874 34.8662C84.1438 34.7251 84.0536 34.5381 84.0322 34.3373C83.9464 33.7782 83.9464 33.2091 84.0322 32.65C84.1034 32.1918 84.4024 31.929 84.8752 31.8682C85.1949 31.8295 85.5171 31.8146 85.8391 31.8237C86.8775 31.8454 87.918 31.7781 88.9553 31.8638C89.6256 31.9192 89.9991 32.3687 89.9462 33.0485C89.9478 33.109 89.9263 33.1679 89.8862 33.2132C89.8461 33.2584 89.7903 33.2864 89.7303 33.2917C89.4788 33.3449 89.2262 33.4003 88.9747 33.4698C88.7589 33.5295 88.6919 33.4328 88.7168 33.2526C88.7578 32.9366 88.6013 32.8878 88.3314 32.8921C87.3959 32.9051 86.4576 32.9051 85.5163 32.8921C85.2584 32.8921 85.185 32.9779 85.186 33.2287C85.186 33.9953 85.1806 33.9953 85.9416 33.9953C86.7695 33.9953 87.5974 33.9953 88.4242 33.9953C88.6356 33.9969 88.8468 34.0099 89.0568 34.0344C89.6332 34.1006 89.8793 34.3178 89.9678 34.8954C90.0442 35.4372 90.0479 35.9868 89.9786 36.5296C89.9063 37.1528 89.5706 37.4405 88.9391 37.4547C88.2494 37.4688 87.5596 37.4547 86.8688 37.4547H86.8753Z" fill="#0D0D0D"/>
<path d="M106.201 35.4036L108.565 37.358C108.544 37.4666 108.479 37.4536 108.429 37.4536C107.914 37.4536 107.399 37.4536 106.884 37.4536C106.82 37.4507 106.757 37.4347 106.699 37.4065C106.641 37.3783 106.589 37.3386 106.547 37.2896C105.964 36.7391 105.373 36.1962 104.801 35.6338C104.615 35.4524 104.431 35.3493 104.168 35.3753C103.985 35.3895 103.8 35.3895 103.617 35.3753C103.401 35.3623 103.322 35.4405 103.327 35.662C103.339 36.1615 103.327 36.662 103.334 37.1615C103.334 37.3721 103.277 37.4677 103.052 37.4547C102.805 37.4367 102.556 37.4367 102.309 37.4547C102.042 37.4764 101.979 37.3548 101.985 37.1148C101.991 35.5773 101.985 34.0409 101.985 32.5045C101.985 32.3557 101.985 32.2081 101.985 32.0604C101.985 31.9127 102.053 31.8204 102.219 31.8204C103.864 31.8389 105.511 31.7574 107.155 31.8639C107.708 31.8997 107.97 32.1896 108.031 32.7564C108.095 33.3264 108.095 33.9019 108.031 34.472C107.974 34.9845 107.664 35.2863 107.15 35.3406C106.854 35.3656 106.562 35.3808 106.201 35.4036ZM104.969 32.8791C104.51 32.8791 104.051 32.8791 103.591 32.8791C103.407 32.8791 103.322 32.9377 103.329 33.1353C103.339 33.4611 103.339 33.7868 103.329 34.1071C103.321 34.3015 103.395 34.3666 103.585 34.3634C104.072 34.3536 104.557 34.3634 105.047 34.3579C105.497 34.3514 105.947 34.3916 106.396 34.321C106.612 34.2874 106.72 34.1744 106.72 33.954C106.72 33.7336 106.72 33.5284 106.72 33.3156C106.72 32.9833 106.627 32.8899 106.288 32.8813C105.852 32.8769 105.411 32.8823 104.969 32.8823V32.8791Z" fill="#0D0D0D"/>
<path d="M71.5205 35.4436C72.2091 36.0115 72.9 36.5783 73.5865 37.1494C73.675 37.2222 73.8466 37.2841 73.8023 37.4003C73.7581 37.5164 73.5865 37.4524 73.4785 37.4545C73.0921 37.4611 72.7046 37.4469 72.3192 37.4611C72.2148 37.4681 72.1101 37.4524 72.0122 37.4149C71.9144 37.3774 71.8258 37.3191 71.7526 37.2439C71.1891 36.701 70.6073 36.17 70.046 35.6228C69.9669 35.5408 69.8713 35.4769 69.7655 35.4353C69.6597 35.3937 69.5463 35.3754 69.4329 35.3817C68.6266 35.3937 68.6266 35.3817 68.6266 36.207C68.6266 36.5229 68.6147 36.8378 68.6266 37.1527C68.6385 37.4024 68.5349 37.4784 68.3028 37.4643C68.0638 37.4486 67.824 37.4486 67.585 37.4643C67.341 37.4817 67.2666 37.3872 67.2687 37.1451C67.2774 35.7194 67.2687 34.2927 67.2687 32.8659C67.2687 32.6249 67.2817 32.3827 67.2687 32.1428C67.2558 31.9028 67.3518 31.817 67.5925 31.817C68.5403 31.8257 69.489 31.817 70.4368 31.8225C71.0898 31.829 71.7428 31.7801 72.3948 31.8594C73.009 31.9354 73.3144 32.2709 73.3231 32.8931C73.3288 33.3658 73.3288 33.8381 73.3231 34.3101C73.3144 34.9387 72.9895 35.2808 72.3656 35.3459C72.0915 35.3731 71.8173 35.3883 71.5205 35.4436ZM70.2381 32.8833C69.787 32.8833 69.3369 32.8833 68.8857 32.8833C68.6968 32.8833 68.6212 32.9561 68.6266 33.1472C68.6352 33.4523 68.6396 33.7585 68.6266 34.0636C68.6169 34.2883 68.6903 34.373 68.9245 34.3687C69.6412 34.3557 70.359 34.3687 71.0768 34.3622C72.0818 34.3513 72.0332 34.2992 72.0213 33.3133C72.0219 33.3039 72.0219 33.2945 72.0213 33.2851C71.9987 33.0234 71.8702 32.8822 71.5896 32.8866C71.1395 32.8887 70.6893 32.8833 70.2381 32.8833Z" fill="#0D0D0D"/>
<path d="M78.7547 37.4568C77.8912 37.4568 77.0277 37.4513 76.1642 37.4568C75.9375 37.4568 75.8544 37.3818 75.8555 37.1538C75.8605 35.4773 75.8605 33.8012 75.8555 32.1255C75.8555 31.9007 75.9397 31.8127 76.1642 31.8127C77.8761 31.8178 79.5877 31.8178 81.2989 31.8127C81.5212 31.8127 81.613 31.8953 81.6098 32.1233C81.599 32.9919 81.681 32.828 80.9146 32.8356C79.8007 32.8457 78.6875 32.8457 77.575 32.8356C77.3245 32.8356 77.2371 32.904 77.2382 33.1613C77.2382 34.0234 77.2317 34.0234 78.0888 34.0234C78.5572 34.0234 79.0268 34.0321 79.492 34.0234C79.7079 34.0234 79.7845 34.106 79.7823 34.3166C79.7737 35.157 79.8536 35.0419 79.0937 35.0495C78.5788 35.0495 78.0639 35.0571 77.548 35.0495C77.3321 35.0495 77.2242 35.1125 77.236 35.3492C77.2495 35.5988 77.2495 35.8489 77.236 36.0984C77.2231 36.3373 77.344 36.3677 77.5426 36.3677C78.7763 36.3623 80.009 36.3677 81.2417 36.3677C81.6562 36.3677 81.6594 36.3677 81.6573 36.7792C81.6573 37.5925 81.7296 37.4535 80.9891 37.4622C80.2486 37.4709 79.4995 37.4568 78.7547 37.4568Z" fill="#0D0D0D"/>
<path d="M112.39 31.8205H115.207C115.575 31.8205 115.589 31.8325 115.586 32.1875C115.579 33.016 115.685 32.8835 114.884 32.8933C114.368 32.8998 113.852 32.9042 113.338 32.8933C113.109 32.8868 113.033 32.9693 113.034 33.1973C113.042 34.4851 113.034 35.7729 113.034 37.0606C113.034 37.458 113.034 37.458 112.634 37.4591C112.418 37.4591 112.191 37.4483 111.971 37.4591C111.751 37.47 111.681 37.3896 111.684 37.1714C111.693 36.3559 111.684 35.5427 111.684 34.7251C111.684 34.2245 111.672 33.724 111.684 33.2245C111.693 32.9748 111.625 32.8803 111.36 32.8879C110.725 32.9053 110.09 32.8879 109.455 32.8977C109.221 32.8977 109.125 32.8347 109.131 32.5839C109.159 31.7 108.992 31.8238 109.887 31.8238C110.733 31.814 111.561 31.8205 112.39 31.8205Z" fill="#0D0D0D"/>
<path d="M135.135 10.8457C134.301 10.8457 133.762 10.3843 133.624 9.55579C133.542 9.05198 133.776 8.69475 134.163 8.48302C134.665 8.19971 135.223 8.03017 135.797 7.98629C136.371 7.9424 136.947 8.02521 137.486 8.22894C138.034 8.42656 138.227 8.89779 138.224 9.46676C138.224 9.99771 137.922 10.2974 137.48 10.5015C137.167 10.6404 136.833 10.7266 136.492 10.7567C136.063 10.8023 135.624 10.8153 135.135 10.8457Z" fill="#0D0D0D"/>
<path d="M140.544 22.9819C140.913 22.9948 141.262 23.152 141.517 23.4199C141.772 23.6879 141.913 24.0455 141.91 24.4165C141.907 24.7875 141.76 25.1427 141.5 25.4063C141.241 25.6699 140.889 25.8212 140.52 25.8278C140.152 25.815 139.803 25.6578 139.547 25.3898C139.292 25.1219 139.151 24.7643 139.154 24.3932C139.157 24.0222 139.304 23.6671 139.564 23.4034C139.824 23.1398 140.175 22.9886 140.544 22.9819ZM141.53 24.4185C141.53 23.8213 141.084 23.3326 140.539 23.3326C139.994 23.3326 139.52 23.8299 139.523 24.4054C139.52 24.6819 139.626 24.9484 139.817 25.1469C140.009 25.3454 140.27 25.4597 140.545 25.4652C141.102 25.4652 141.528 25.0102 141.53 24.4185Z" fill="#0D0D0D"/>
<path d="M139.928 24.4155V24.0278C139.928 23.6369 139.962 23.6022 140.344 23.5848C140.528 23.5666 140.713 23.5922 140.884 23.6597C141.128 23.7683 141.241 24.0387 141.1 24.2537C141.053 24.3136 141.025 24.3861 141.019 24.4621C141.014 24.5381 141.03 24.614 141.068 24.6804C141.102 24.7861 141.124 24.8954 141.135 25.0061C141.151 25.0952 141.188 25.2016 141.046 25.2179C140.938 25.2309 140.815 25.2591 140.761 25.1223C140.731 25.0356 140.708 24.9461 140.694 24.8552C140.668 24.7238 140.607 24.6185 140.464 24.6261C140.294 24.6348 140.356 24.7835 140.337 24.8834C140.317 24.9833 140.377 25.1332 140.243 25.2092C140.212 25.2283 140.176 25.2387 140.14 25.2391C140.103 25.2396 140.067 25.2302 140.036 25.2118C140.004 25.1935 139.978 25.1669 139.96 25.1349C139.942 25.1029 139.933 25.0667 139.934 25.03C139.923 24.827 139.934 24.6228 139.934 24.4198L139.928 24.4155Z" fill="#0D0D0D"/>
</g>
<defs>
<clipPath id="clip0_5649_9961">
<rect width="142.373" height="52.1186" fill="white" transform="translate(0 0.440674)"/>
</clipPath>
</defs>
</svg>
